<?xml version="1.0" encoding="utf-8"?>
<!-- Generator: Adobe Illustrator 22.0.1, SVG Export Plug-In . SVG Version: 6.00 Build 0)  -->
<svg version="1.1" id="Layer_1" xmlns="http://www.w3.org/2000/svg" xmlns:xlink="http://www.w3.org/1999/xlink" x="0px" y="0px"
	 viewBox="0 0 326.1 62.2" style="enable-background:new 0 0 326.1 62.2;" xml:space="preserve">
<style type="text/css">
	.st0{fill:#221E1F;}
</style>
<title>logo</title>
<path class="st0" d="M7.1,11.5v0.2c0.8,0.6,1.2,1.5,1.2,2.5c-0.2,1.3,0.3,2.1,1.4,2.3H10c0.9-0.2,1.6-0.9,1.8-1.8
	c0.1-0.4,0-0.8-0.1-1.2c-0.8-1.3-2.1-2.3-3.7-2.4H7.4C7.2,11.2,7.1,11.4,7.1,11.5z M14.6,10c-2.6,5.6-4.1,8.9-4.5,9.9
	c-0.5,1.2-0.8,1.7-1,1.6l-1.5-0.2l-0.2,0.2v0.4c1.3,0.7,2.1,1.9,2.3,3.3l-0.2,3.6c0.2,1,0.8,1.5,1.6,1.6h0.6
	c1.2-0.3,1.8-0.9,1.9-1.8l-0.1-1.3c-0.5-1.4-0.7-2.9-0.7-4.4c0-1.2,0.1-2.4,0.4-3.5l1.4-5.8c0.7-2.6,1-3.9,0.9-3.9l-0.3-0.2h-0.1
	C14.8,9.4,14.6,9.6,14.6,10L14.6,10z M9.2,3.2v0.1c0.9,0.7,1.4,1.8,1.4,2.9C10.6,7.8,11,8.6,12,8.7h0.7l0.2-0.1
	c0.9-0.1,1.4-0.7,1.6-1.9l0-0.8c-0.1-0.5-0.4-0.9-0.7-1.3c-1-1-2.3-1.6-3.8-1.8H9.6L9.2,3.2z M22.1,2.5c-0.1,2-0.4,3.2-0.9,3.7h-1.2
	c-2.3-1-3.6-1.4-3.7-1.3H16l-0.2,0.1v0.2L16.1,6v7.8c0.1,2.4,0.1,4.7-0.1,7.1l0,0c-0.1,0.1,0.2,0.2,0.8,0.4h0.7
	c1-0.1,1.6-0.4,1.6-0.8v-1.7c1.4-0.7,2.7-1.6,3.8-2.6l0.2,0.2v3.5l0.1,0.2l-0.6,0.1c-0.9-0.1-1.3,0-1.2,0.2v0.2l0.2,0.5v1.1
	l-0.1,0.4h-3.1c-3,0-4.6,0-4.6-0.1l-0.1,0.1v0.1l0.3,0.6l0.9-0.2h6.5v0.4c-0.4,1.6-1.2,3-2.4,4c-1.7,1.3-3.7,2.3-5.8,2.8v0.2
	l0.3,0.2c2.1,0,4.3-0.5,6.2-1.4c2.5-1.1,4.4-3.2,5.2-5.9h0.1l0.2,0.3c1.5,4,3.9,6.3,7.2,6.7h0.4l0.2-0.1c0.4-1.2,1.2-2.2,2.2-3v-0.2
	c0-0.2-0.2-0.3-0.4-0.3c-3.8-0.1-6.7-1.3-8.7-3.5v-0.1l0.4-0.2h8.9c0.3-0.2,0.4-0.3,0.4-0.4v-0.2l-0.2-0.3c-0.4-0.6-1-1.1-1.6-1.5
	c-1-0.5-1.4-0.9-1.2-1.1l-0.1-1.5V7.8c0.7-0.5,0.9-0.9,0.9-1V6.5l-0.2-0.4c-0.8-0.7-1.7-1.2-2.7-1.6h-0.3l-0.4,0.3l-1,1.4h-5.6
	l0.3-0.4c0.7-0.6,1.4-1.1,2.2-1.4c0.5-0.2,0.8-0.4,0.7-0.5V3.8l-0.1-0.2c-1.2-0.5-2.4-0.9-3.7-1.2h-0.5L22.1,2.5z M25.4,6.8L25.6,7
	v0l-0.1,0.1l-1.3,0.6c-1.5,0.6-3,1.1-4.5,1.5v0.2l0.1,0.1H20l3.2-0.1v3c-0.1,0.2-0.3,0.3-0.4,0.4h-0.4v-0.2l0.1-0.3v-0.5
	c-0.2-1.1-1.1-1.8-2.2-2h-0.1L20.1,10v0.2l0.4,1.1c0,0.5,0,1-0.2,1.4h-0.6c-0.4-0.2-0.5-0.4-0.4-0.5V7.2c0.1-0.2,0.3-0.3,0.4-0.4
	H25.4z M21.6,13.4l0.4,0.2v0.1l-0.2,0.5c-0.5,1.4-1.4,2.6-2.4,3.6h-0.1v-4c0.1-0.2,0.2-0.3,0.4-0.4H21.6z M29.7,13.4v7.1
	c0,0.2,0.2,0.4,0.8,0.4l0.8-0.1l0.1,0.1v0.1l0,0.1c-0.2,0.5-0.4,0.9-0.7,1.3h-5.5l0.1-0.4C25.1,22,25.4,21.7,26,21v-0.3l-0.1-0.2
	L25,20.3c-0.6,0-0.8-0.1-0.7-0.2v-0.1c0.7-0.1,1.2-0.3,1.3-0.6v-4.9h0.1c0.2,0.1,0.3,0.2,0.4,0.4l0.6,1.3c0.2,1.6,0.5,2.3,0.9,2.2
	H28c0.7-0.2,1.2-0.8,1.3-1.5v-0.4c-0.2-0.7-0.5-1.2-0.8-1.4c-0.8-0.6-1.7-1-2.7-1.3c0.1-0.2,0.2-0.4,0.4-0.4L29.7,13.4z M29.7,7.2
	v5.2h-0.1l-1.3-0.8h-0.3l-0.2,0.1c-0.3,0.3-0.6,0.7-0.7,1.1h-1v-0.1l0.1-0.1c1-0.7,1.9-1.5,2.7-2.4v-0.1l-0.1-0.2
	c-0.5-0.3-1.1-0.5-1.7-0.7H27c-0.3,1-0.7,2-1.4,2.8V9.3l1.6-0.4c1.1-0.2,1.7-0.4,1.7-0.6V8.2L28.8,8l-1.2-1.1V6.8h1.8
	C29.5,6.9,29.6,7,29.7,7.2L29.7,7.2z"/>
<path class="st0" d="M74.5,3h0.5c0.9,0.2,1.8,0.6,2.5,1.3l0.4,0.4v0.4c-0.2,0.4-0.5,0.7-0.8,0.9v5.5l0.1,2v0.8
	c-0.5,0.4-0.9,0.5-1.1,0.5L76,14.8h-1.5c-0.6-0.1-0.8-0.6-0.6-1.4l-0.4-0.3h-3.2c-0.2,0.1-0.3,0.2-0.4,0.4v12.8
	c0.1,1.2,0.2,2.3,0.1,3.5c-0.4,0.4-0.9,0.6-1.5,0.7h-1.3c-0.5-0.1-0.7-0.2-0.7-0.4V4.6l-0.1-1.1c0.1-0.1,0.2-0.3,0.4-0.3h0.4
	c1.2,0.3,2.3,0.6,3.4,1.1l0.1,0.1h2.7C73.6,3.8,74,3.3,74.5,3z M70.3,5c-0.2,0.1-0.3,0.2-0.4,0.4v2.3c-0.1,0.1,0,0.2,0.4,0.5h3.2
	c0.3-0.2,0.5-0.4,0.4-0.5V5.4c-0.1-0.2-0.2-0.3-0.4-0.4L70.3,5z M70.3,8.9C70.1,9,70,9.2,69.9,9.4V12c-0.1,0.1,0,0.2,0.4,0.5h3.2
	c0.3-0.2,0.5-0.4,0.4-0.5V9.4c-0.1-0.2-0.2-0.3-0.4-0.4L70.3,8.9z M87.1,2.8h0.7c1.2,0.3,2.3,0.9,3.1,1.8v0.5c0,0.2-0.2,0.4-0.8,0.9
	v16.6c0.1,1.4,0.2,2.9,0.1,4.3c-0.4,1.7-1.8,3-3.4,3.4h-1.1c-0.4,0-0.6-0.5-0.7-1.6c-0.1-0.6-0.8-1.4-2.1-2.2v-0.3l0.1-0.1l2.2,0.1
	l1.1-0.2c0.2-0.1,0.4-0.3,0.5-0.7V13.4c-0.1-0.2-0.2-0.3-0.4-0.4H83c-0.3,0-0.5,0.4-0.6,1.1l-1.1,0.4h-1.2c-0.5-0.1-0.8-0.3-0.8-0.5
	c0.1-0.9,0.2-4.1,0.1-9.8l-0.1-0.1V3.5c0.1-0.2,0.2-0.3,0.4-0.3H80c1,0.2,2,0.5,3,0.9L83,4.2h3L87,2.9L87.1,2.8z M83,4.9
	c-0.2,0.1-0.3,0.2-0.4,0.4v2.3c-0.1,0.1,0,0.2,0.4,0.5h3.3c0.3-0.2,0.5-0.4,0.4-0.5V5.3c-0.1-0.2-0.2-0.3-0.4-0.4L83,4.9z M83,8.8
	c-0.2,0.1-0.3,0.2-0.4,0.4v2.6c-0.1,0.1,0,0.2,0.4,0.5h3.3c0.3-0.2,0.5-0.4,0.4-0.5V9.2c-0.1-0.2-0.2-0.3-0.4-0.4H83z"/>
<path class="st0" d="M134.3,2.8h1.6c1,0.1,1.9,0.4,2.7,0.9v0.5l-0.7,0.8v0.6c-0.1,0.1,0,0.2,0.4,0.5h5.8l1.3-1.9l0.4-0.4h0.9
	c1.1,0.4,1.9,1.2,2.5,2.2v0.4c0,0.1-0.1,0.2-0.3,0.4h-21.4c-0.2,0-0.4,0.2-0.4,0.4V19c-0.2,4.2-2,8.2-5,11.1l-0.1,0.1h-0.2l-0.2-0.2
	c1.7-3.7,2.5-7.7,2.4-11.7V8c-0.1-0.9-0.3-1.8-0.6-2.6l0.3-0.2h0.5l2.8,0.8l0.5,0.2h6.5c0.3-0.2,0.5-0.4,0.4-0.5V4.3l-0.3-1V3
	L134.3,2.8z M145.4,12.7h0.6c1.1,0.4,2,1.2,2.5,2.1v0.2c0,0.1-0.1,0.2-0.4,0.4H139c-0.2,0.1-0.3,0.2-0.4,0.4v1.3
	c-0.1,0.1,0.1,0.2,0.4,0.5h2.8l1.1-1.3h0.6c0.9,0.2,1.7,0.6,2.4,1.2c0.3,0.2,0.5,0.4,0.5,0.5v0.3c-0.3,0.3-0.6,0.6-0.9,0.9v3.2
	c0.1,0.6,0.2,1.3,0.1,1.9c-0.3,0.2-0.7,0.4-1.1,0.5l-1.3,0.1c-0.6,0-1.1-0.4-1.3-1h-8.2c-0.1,0.1,0.2,0.2,0.7,0.4
	c0.8,0.4,1.5,0.8,2.2,1.3l0.4,0.3v0.5c-1.2,0.4-2.3,0.9-3.3,1.6c-2.6,1.2-5.5,1.7-8.4,1.7H125l-0.1-0.1v-0.4c3-0.8,5.8-2.3,8-4.5
	l0.1-0.2v-0.1c-0.2-0.4-0.4-0.5-0.5-0.4h-0.2c-0.2,0-0.5,0.4-0.8,1.1l-0.8,0.2h-1.5l-0.7-0.3c0.1-0.9,0.2-3.2,0.1-7l-0.2-0.8V17
	c0-0.2,0.2-0.3,0.3-0.3h0.5l2.3,0.7l0.6,0.3h2.8c0.3-0.2,0.4-0.4,0.4-0.5v-1.3c-0.1-0.2-0.2-0.3-0.4-0.4h-6.1
	c-0.4,0.1-0.7,0.2-1.1,0.1c-0.2-0.1-0.3-0.3-0.4-0.4v-0.3l0.1-0.1l4.6,0.1h11.5C144.1,14.1,144.7,13.4,145.4,12.7L145.4,12.7z
	 M132,7.4h1c0.8,0.1,1.7,0.3,2.4,0.6l0.1,0.1v0.6l-0.7,0.7v0.2c-0.1,0.1,0.1,0.2,0.4,0.5h3.6c0.3-0.2,0.4-0.4,0.4-0.5v-1L139,7.9
	V7.7l0.5-0.3h1c0.8,0,1.6,0.3,2.3,0.7l0.1,0.1v0.5c0,0.1-0.2,0.3-0.5,0.6v0.5c0.1,0.1,0.2,0.3,0.3,0.4h0.2c0.5-0.7,1.1-1.4,1.7-2
	l0.1,0h0.4c0.9,0.5,1.7,1.2,2.3,2l0.1,0.1v0.2c0,0.1-0.1,0.2-0.4,0.4h-4.4c-0.2,0.1-0.3,0.2-0.4,0.4V14c-0.3,0.3-0.7,0.5-1.1,0.6
	H140c-0.7-0.2-0.9-0.5-0.7-0.9c-0.1-0.2-0.2-0.3-0.4-0.4h-3.6c-0.2,0-0.5,0.4-0.8,1l-0.7,0.2h-1.5l-0.6-0.4v-2.9
	c-0.1-0.2-0.2-0.3-0.4-0.4l-3.2,0c-0.1,0-0.2-0.1-0.3-0.3v-0.4l0.1-0.1c1.1,0.2,2.2,0.2,3.4,0.1c0.3-0.2,0.5-0.4,0.4-0.5v-1
	l-0.2-0.6V7.6L132,7.4z M132.3,18.4c-0.2,0-0.4,0.2-0.4,0.4v1.1c-0.1,0.1,0,0.2,0.4,0.5h2.6c0.3-0.2,0.4-0.4,0.4-0.5v-1.1
	c-0.1-0.2-0.2-0.3-0.4-0.4L132.3,18.4z M132.3,21.1c-0.2,0.1-0.4,0.2-0.4,0.4v1.4c-0.1,0.1,0,0.2,0.4,0.5h2.6
	c0.3-0.2,0.4-0.4,0.4-0.5v-1.4c-0.1-0.2-0.2-0.3-0.4-0.4L132.3,21.1z M135.3,10.8c-0.2,0.1-0.3,0.2-0.4,0.4v0.9
	c-0.1,0.1,0.1,0.2,0.4,0.5h3.6c0.3-0.2,0.4-0.4,0.4-0.5v-0.9c-0.1-0.2-0.2-0.3-0.4-0.4H135.3z M138.4,24.8h1.9
	c2.2,0.1,4.3,0.7,6.2,1.7c0.4,0.3,0.7,0.8,0.9,1.3v1c-0.2,0.6-0.6,1.1-1.2,1.2L146,30h-0.5c-0.5,0.1-1.4-0.7-2.8-2.2
	c-1.4-1.1-3.1-2-4.8-2.5v-0.3L138.4,24.8z M139,18.4c-0.2,0.1-0.3,0.2-0.4,0.4v1.1c-0.1,0.1,0.1,0.2,0.4,0.5h2.9
	c0.3-0.2,0.5-0.4,0.4-0.5v-1.1c-0.1-0.2-0.2-0.3-0.4-0.4H139z M139,21.1c-0.2,0.1-0.3,0.2-0.4,0.4v1.4c-0.1,0.1,0.1,0.2,0.4,0.5h2.9
	c0.3-0.2,0.5-0.4,0.4-0.5v-1.4c-0.1-0.2-0.3-0.3-0.4-0.4L139,21.1z"/>
<path class="st0" d="M191.5,2.2v0.2l0.3,1.4v3.4c0,0.1-0.1,0.2-0.4,0.5h-3.5V7.5l0.8-1.1c0.4-0.2,0.9-0.5,1.2-0.9V5.1l-0.3-0.3
	c-1-0.5-2.1-0.9-3.3-1h-0.8l-0.3,0.2L185,5.8c-0.9,2.8-2.3,5.4-4.1,7.7v0.2l0.2,0.2h0.4l1.1-0.7c2.7-2.1,4.3-3.7,4.9-4.9h4
	c0.2,0.1,0.3,0.2,0.4,0.4v5.2c0,0.1-0.1,0.3-0.4,0.5h-7.3c-2.9,0-4.3,0-4.3-0.1l-0.1,0.1v0.3c0,0.2,0.2,0.4,0.4,0.5l1.8-0.2H207
	c0.3-0.2,0.4-0.3,0.4-0.4v-0.3l0-0.1c-0.8-1-1.8-1.8-2.9-2.3H204l-0.3,0.1c-0.1,0-0.4,0.4-0.9,1.3c-0.5,0.8-0.9,1.2-0.9,1.1h-6.2
	c-0.4-0.2-0.5-0.4-0.4-0.5V8.7c0.1-0.2,0.2-0.4,0.4-0.4h8l0.3-0.3V7.7l-0.1-0.1c-0.8-1-1.8-1.8-2.9-2.3h-0.5l-0.1,0.1l-1.7,2.4h-2.9
	c-0.4-0.2-0.5-0.4-0.4-0.5V4.6l0.1-0.1c0.6-0.7,0.8-1,0.8-1.1V3l-0.3-0.2c-0.7-0.4-1.4-0.7-2.2-0.7h-1.8L191.5,2.2z M200.1,17.8
	l-1.1,1.7h-11.2l-0.4-0.3l-2.9-1h-0.7l-0.1,0.1c0.1,1,0.2,1.9,0.1,2.9c0,5.7,0,8.5-0.1,8.5c0.1,0.2,0.3,0.4,0.6,0.4h1.6l0.1-0.1
	c0.2,0.1,0.6-0.1,1.2-0.5c-0.1-1.2,0.1-1.8,0.5-1.8h11.7l0.3,0.3c-0.1,1,0.1,1.6,0.7,1.8h1.3c0.6-0.1,1.2-0.4,1.5-0.9v-0.4l-0.1-1.6
	v-5.8l0.2-0.2c0.5-0.4,0.7-0.6,0.6-0.7v-0.8l-0.1-0.2c-0.7-0.8-1.6-1.4-2.6-1.7h-0.8L200.1,17.8z M199.1,20.1
	c0.2,0.1,0.3,0.3,0.4,0.4v6.3c0,0.1-0.1,0.2-0.4,0.5h-11.7c-0.4-0.2-0.5-0.4-0.4-0.5v-6.3c0.1-0.2,0.2-0.4,0.4-0.4H199.1z"/>
<path class="st0" d="M253.2,2.5h0.3l2.1,1l0.7,0.5v0.4l-0.2,0.3v0.1h2.9l1.1-1.3l0.1,0h0.6C262,4,263,4.7,264,5.6l0,0.1
	c0.2,0.2-0.1,0.6-1,1.2c-0.2,0-0.3,0.4-0.3,1.3c0.1,0,0,2.2-0.2,6.5h0.4l0.7-0.4h0.4c1.1,0.6,2,1.4,2.7,2.4v0.6
	c0,0.2-0.6,0.4-1.9,0.5c-1.1,0.3-2.1,0.8-3,1.5l-0.6,0.5h-0.4l-0.1-0.1v-0.3l1.4-2.6v-0.2h-19.9v0.5l0.1,0.3v1.3
	c-0.1,1.2-1,2.2-2.2,2.4h-0.9c-0.6-0.1-1.1-0.6-1.2-1.2v-0.5c0-0.2,0.5-1.1,1.5-2.6c0.3-0.8,0.4-1.7,0.4-2.6l0.1-0.1h0.1
	c0.7,0.5,1.1,0.8,1.1,0.9l0.3,0.2h0.1l-0.2-8.6l-0.3-1.1l-0.1,0V5.1l0.2-0.1h0.4l2.3,0.7l0,0.1h0.1c0.9-0.7,1.7-1.5,2.3-2.5
	c0.1-0.4,0.2-0.6,0.4-0.6h0.2c1,0.6,1.9,1.3,2.6,2.1l0.1,0.1v0.4c0,0.2-0.6,0.4-1.8,0.5c-0.9,0.1-1.8,0.3-2.6,0.7
	c-0.1-0.1-0.1,0-0.2,0.2v2.1l0.2,0.2h0.6c0.3-0.5,0.7-1,1.1-1.4h0.5c0.7,0.3,1.2,0.9,1.6,1.5v0.2c-0.1,0.2-0.2,0.3-0.4,0.3h-3.2
	c-0.2,0.1-0.3,0.2-0.4,0.4L245,12l0.1,0.2h0.6l1.2-1.5h0.6c0.7,0.4,1.3,0.9,1.7,1.6v0.2c0,0.1-0.1,0.2-0.4,0.4h-3.5
	c-0.2,0.1-0.3,0.2-0.4,0.4v2.1c-0.1,0.1,0.1,0.2,0.4,0.5h13.3c0.3-0.2,0.4-0.4,0.4-0.5v-2.3c-0.1-0.2-0.2-0.3-0.4-0.4h-2.1
	c0.1,0,0,0.1-0.3,0.1l-0.3-0.4v-0.2l0.1-0.1l1.4,0h1.3c0.3-0.2,0.4-0.4,0.4-0.5V9.9c-0.1-0.2-0.2-0.3-0.4-0.4h-2.6l-0.3-0.3V8.9
	l0.1-0.1l1.8,0.1h1c0.3-0.3,0.5-0.4,0.4-0.5V6c-0.1-0.2-0.2-0.3-0.4-0.4h-2.6l-0.2,0.1c-0.3-0.2-0.4-0.5-0.4-0.8h-0.1
	c-0.1-0.1-0.4,0.2-0.9,0.9v0.1c0.2,0,0.4,0.4,0.6,1.1v0.8c-0.1,0.5-0.5,0.9-1,1.1h-0.5c-0.4-0.3-0.8-0.6-1-1.1h-0.3
	c-0.7,0.5-1.5,0.9-2.3,1.2l-0.5,0.2h-0.5L249.2,9V8.9c-0.1-0.1,0.3-0.5,1.2-1.1c0.5-0.5,0.9-1,1.3-1.7V6L250,4.5V4.3l0.3-0.2
	c0.8-0.1,1.5,0,2.2,0.3C252.6,4.4,252.9,3.8,253.2,2.5z M256.6,17.3h0.7c1.1,0.6,2,1.4,2.8,2.4v0.3c0.1,0.4-0.5,0.6-1.9,0.5
	c-0.7-0.1-1.9,0.3-3.6,1.2c0,0.2-0.2,0.5-0.7,0.9v0.2l0.2,0.2h5.7c0.3-0.9,0.8-1.8,1.5-2.4h0.6c1.3,0.5,2.4,1.3,3.2,2.4v0.2
	c0,0.1-0.1,0.2-0.4,0.4h-10.4c-0.2,0.1-0.4,0.2-0.4,0.4v4.3c0.1,0.9-1,1.6-3.2,2.1h-1.2c-0.4,0-0.7-0.7-1.1-1.9
	c-0.6-0.8-1.6-1.4-2.6-1.5v-0.2l0.2-0.2c1.2,0.2,2.5,0.2,3.7,0.2c0.3-0.1,0.6-0.3,0.7-0.7V24c-0.1-0.2-0.2-0.3-0.4-0.4h-9.6
	l-1.1,0.2c-0.2,0-0.3-0.2-0.5-0.6v-0.2l0.1-0.1h0.4l0.4,0.1H250c0.3-0.2,0.4-0.4,0.4-0.5v-0.7l-0.3-0.8v-0.3l0.2-0.2
	c1,0,2,0.1,2.9,0.3c0.2,0,0.6-0.4,1.4-1.2l0.3-0.4v-0.1h-10l-0.4,0.1h-0.2l-0.2-0.3v-0.4l0.1-0.1l1.8,0h9.1L256.6,17.3z M253.5,9.1
	h0.3c0.9,0.3,1.7,0.8,2.4,1.4l0.2,0.3v0.2c0.1,0.1-0.3,0.5-1.3,1l-0.3,0.5v0.4c0.2,0.3,0.3,0.6,0.4,0.9v0.8c-0.2,0.5-0.5,0.8-1,1
	c-0.5,0.3-1.1-0.2-1.9-1.3c-1.1,0.6-2.3,1-3.5,1.3h-0.5l-0.1-0.1v-0.2c1.2-0.7,2.3-1.5,3.2-2.5v-0.2c0.1-0.1-0.4-0.6-1.5-1.7
	l-0.1-0.1v-0.3l0.1,0h0.9l1.5,0.5h0.1C253,10.3,253.3,9.7,253.5,9.1L253.5,9.1z"/>
<path class="st0" d="M309.4,2.5h0.6l2.9,1.1c0.5,0.2,0.8,0.4,0.8,0.6v0.4c-0.1,0.2-0.3,0.4-0.5,0.4v0.2c3.9,2.4,8.3,3.7,12.9,3.8
	l0,0.1v0.4c-0.8,0.6-1.5,1.2-2.1,2c-0.1,0.5-0.4,1-0.9,1.1h-0.7c-1.5-0.5-3-1.2-4.4-2l-0.1-0.1c0,0.5-0.1,0.8-0.5,0.8h-10.7
	c-0.3,0.1-0.6,0.2-0.9,0.1c-0.3-0.2-0.5-0.4-0.5-0.5v-0.2l0.1-0.1c1.5,0.2,3.1,0.2,4.6,0.1h3.5l1.5-1.7l0.3-0.1V8.8
	c-1.1-0.9-2.2-2-3.1-3.1h-0.1c-2.5,2.4-5.4,4.3-8.6,5.7l-1.7,0.7v0.1l2.5,0.9l0.4,0.2h13.6c0.3-0.6,0.8-1.1,1.4-1.5h0.4
	c1,0.4,1.9,1,2.7,1.7l0,0.1v0.4c-0.2,0.4-0.5,0.7-0.8,0.8l0.1,4.9c-0.4,0.5-1.1,0.9-1.8,0.9l-0.8-0.1l1.5,1.2l0.2,0.2v0.6l-0.7,0.9
	v4.9l0.1,1.6v0.3c-0.2,0.5-0.6,0.8-1.1,0.8h-1.7c-0.3,0.1-0.6-0.4-0.8-1.3l-0.2-0.1h-10.1c-0.3,0-0.5,0.4-0.6,1.1
	c-0.6,0.2-1.2,0.3-1.8,0.3h-0.8c-0.3,0-0.6-0.3-0.6-0.6c0.2-2.4,0.2-4.9,0.1-7.3v-1.1l-0.2-1.1c-0.6,0.2-1.2,0-1.6-0.5l0-0.1l0-5.1
	l0-2.2l-0.1-0.5c-1.1,0.5-2.2,0.8-3.4,0.9h-0.4l-0.1-0.1v-0.1c3.9-1.9,7.4-4.5,10.3-7.7c0.5-0.5,0.9-1.1,1.3-1.7l0.4-1.1L309.4,2.5z
	 M304.6,19.8c-0.1,0.5-0.4,0.8-0.9,1v0.1l2.7,0.8l0.1,0h10.1c0.3-0.5,0.8-0.9,1.2-1.2c0.7-0.1,1-0.2,0.9-0.2v-0.1l-0.2-0.4
	L304.6,19.8z M304.8,13.9c-0.2,0.1-0.3,0.2-0.4,0.4v4.3c-0.1,0.1,0.1,0.2,0.4,0.5h4.9c0.3-0.2,0.4-0.4,0.4-0.5v-4.3
	c-0.1-0.2-0.2-0.3-0.4-0.4L304.8,13.9z M305.8,14.3h0.7c0.9,0.2,1.7,0.7,2.3,1.5l0.4,1.1v0.6c-0.2,0.7-0.8,1.2-1.4,1.4l-0.1,0.1
	h-0.2c-0.9-0.2-1.3-1.1-1.1-2.8c-0.1-0.6-0.3-1.1-0.7-1.5h-0.1v-0.2L305.8,14.3z M306.7,22.3c-0.2,0.1-0.4,0.2-0.4,0.4v1.8
	c-0.1,0.1,0.1,0.2,0.4,0.5h10.1c0.3-0.2,0.5-0.4,0.4-0.5v-1.8c-0.1-0.2-0.3-0.3-0.4-0.4H306.7z M306.7,25.6
	c-0.2,0.1-0.4,0.2-0.4,0.4v2.3c-0.1,0.1,0.1,0.2,0.4,0.5h10.1c0.3-0.2,0.5-0.4,0.4-0.5V26c-0.1-0.2-0.3-0.3-0.4-0.4L306.7,25.6z
	 M313.5,13.9c-0.2,0.1-0.4,0.2-0.4,0.4v4.3c-0.1,0.1,0.1,0.2,0.4,0.5h0.2c0.5-0.7,0.9-2.3,1.1-4.8l0.1-0.1h0.6
	c0.9,0.2,1.8,0.6,2.6,1.2v0.2c0.1,0.1-0.3,0.4-1.2,0.9c0,0-0.7,0.8-2.2,2.2l-0.2,0.2v0.2h3.8c0.3-0.2,0.4-0.4,0.4-0.5v-4.3
	c-0.1-0.2-0.2-0.3-0.4-0.4L313.5,13.9z"/>
<path class="st0" d="M23.5,59.9h-5.4v-0.3h0.4c0.4,0.1,0.8-0.1,1.1-0.4c0.2-0.4,0.3-0.9,0.3-1.4v-8.3L15,59.9h-0.3L9.8,49.4l0,8.3
	c0,0.5,0.1,1,0.3,1.4c0.3,0.3,0.7,0.4,1.1,0.4h0.4v0.3H7.1v-0.3h0.4c0.4,0.1,0.8-0.1,1.1-0.4c0.2-0.4,0.3-0.9,0.3-1.4v-8.1
	c0.1-0.5-0.1-1-0.3-1.4c-0.3-0.3-0.8-0.4-1.2-0.4H7.1v-0.3h3.6l4.6,9.7l4.5-9.7h3.6v0.3h-0.4c-0.4,0-0.8,0.1-1.1,0.4
	c-0.2,0.5-0.3,1-0.3,1.5v8.1c-0.1,0.5,0,1,0.3,1.5c0.3,0.3,0.7,0.4,1.1,0.4h0.4L23.5,59.9z"/>
<path class="st0" d="M36.6,59.5c-0.5,0-0.9-0.1-1.2-0.4c-0.4-0.5-0.7-1-0.9-1.6L30,47.1h-0.3l-4.5,10.2C25,58,24.7,58.5,24.3,59
	c-0.3,0.3-0.6,0.5-1,0.5l-0.2,0v0.3h4v-0.3l-0.3,0c-0.8,0-1.2-0.3-1.2-0.8c0-0.4,0.1-0.7,0.3-1l0.9-2h4.9l0.8,1.8
	c0.2,0.4,0.3,0.7,0.4,1.1c0,0.3-0.1,0.5-0.3,0.7c-0.3,0.2-0.7,0.2-1,0.2v0.3h5L36.6,59.5z M27.1,55l2.2-5.1l2.2,5.1H27.1z"/>
<path class="st0" d="M48,57c-1,2-3.1,3.2-5.3,3.2c-1.7,0.1-3.3-0.6-4.5-1.7c-1.2-1.2-1.8-2.9-1.7-4.6c-0.1-1.8,0.6-3.5,1.9-4.8
	c1.2-1.3,2.9-1.9,4.6-1.9c0.9,0,1.9,0.2,2.7,0.6c0.2,0.1,0.4,0.2,0.6,0.2c0.4,0,0.7-0.3,0.8-0.8h0.3l0.3,4.2h-0.3
	c-0.1-0.4-0.3-0.8-0.4-1.2c-0.1-0.3-0.3-0.6-0.5-0.8c-0.4-0.5-0.9-0.9-1.4-1.1c-0.6-0.3-1.2-0.4-1.9-0.4c-1.3-0.1-2.6,0.5-3.3,1.6
	c-0.9,1.3-1.3,2.9-1.2,4.4c-0.1,1.5,0.4,2.9,1.3,4.1c0.9,1,2.2,1.5,3.5,1.4c0.8,0,1.5-0.2,2.2-0.5c0.8-0.5,1.4-1.1,1.9-1.9l0.1-0.1
	L48,57z"/>
<path class="st0" d="M61.4,59.5c-0.5,0-0.9-0.1-1.3-0.4c-0.4-0.5-0.7-1-0.9-1.6l-4.4-10.4h-0.3L50,57.4c-0.2,0.6-0.5,1.1-0.9,1.6
	c-0.3,0.3-0.6,0.5-1,0.5l-0.2,0v0.3h4v-0.3l-0.3,0c-0.8,0-1.2-0.3-1.2-0.8c0-0.4,0.1-0.7,0.3-1l0.9-2h4.9l0.8,1.8
	c0.2,0.4,0.3,0.7,0.4,1.1c0,0.3-0.1,0.5-0.3,0.7c-0.3,0.2-0.7,0.3-1,0.2v0.3h5L61.4,59.5z M51.9,55l2.2-5.1l2.2,5.1H51.9z"/>
<path class="st0" d="M74.4,47.4h-4.5v0.3h0.5c0.4,0,0.8,0.1,1.1,0.4c0.2,0.5,0.3,1,0.3,1.5v5.1c0,0.6,0,1.1-0.1,1.4
	c0,0.3-0.1,0.7-0.2,1c-0.2,0.7-0.7,1.3-1.3,1.6c-0.7,0.4-1.6,0.6-2.4,0.6c-0.9,0-1.8-0.3-2.5-1c-0.6-1-0.9-2.2-0.8-3.3v-5.5
	c0-0.5,0.1-1,0.3-1.5c0.3-0.3,0.7-0.4,1.1-0.4h0.5v-0.3h-5.5v0.3h0.5c0.4,0,0.8,0.1,1.1,0.4c0.2,0.5,0.3,1,0.3,1.5v5.5
	c0,0.7,0,1.4,0.2,2.1c0.2,0.5,0.4,1,0.7,1.4c0.8,1,2.1,1.5,4.1,1.5c1.3,0.1,2.6-0.3,3.7-1.2c0.4-0.4,0.8-1,1-1.6
	c0.1-0.4,0.2-0.8,0.2-1.1c0-0.3,0.1-0.8,0.1-1.5v-5c0-0.5,0.1-1,0.3-1.5c0.2-0.3,0.6-0.5,1-0.5h0.5L74.4,47.4z"/>
<path class="st0" d="M95,59.9h-5v-0.3c0.4,0,0.7,0,1-0.2c0.2-0.2,0.3-0.4,0.3-0.7c-0.1-0.4-0.2-0.8-0.4-1.1l-0.8-1.8h-4.9l-0.9,2
	c-0.2,0.3-0.3,0.7-0.3,1c0,0.5,0.4,0.8,1.2,0.8l0.3,0v0.3h-4v-0.3l0.2,0c0.4,0,0.7-0.2,1-0.5c0.4-0.5,0.6-1,0.9-1.6l4.5-10.2h0.3
	l4.4,10.4c0.2,0.6,0.5,1.1,0.9,1.6c0.3,0.3,0.8,0.4,1.3,0.4L95,59.9z M89.9,55L87.7,50L85.5,55H89.9z"/>
<path class="st0" d="M107.4,53.6c0,1.3-0.3,2.5-1,3.6c-0.6,1-1.6,1.8-2.7,2.2c-0.5,0.2-1,0.4-1.6,0.5c-0.6,0.1-1.2,0.1-1.9,0.1h-5.7
	v-0.3H95c0.4,0.1,0.8-0.1,1.1-0.4c0.2-0.4,0.3-0.9,0.3-1.4v-8.1c0-0.5-0.1-1-0.3-1.5c-0.3-0.3-0.7-0.4-1.1-0.4h-0.5v-0.3h5.2
	c0.8,0,1.5,0,2.3,0.1c0.6,0.1,1.1,0.2,1.7,0.4c0.4,0.1,0.8,0.3,1.2,0.6c0.4,0.3,0.7,0.6,1,1C107,50.6,107.5,52.1,107.4,53.6z
	 M105.3,53.7c0.1-1.5-0.4-2.9-1.4-4.1c-1-1-2.3-1.6-3.7-1.5c-0.6,0-1.3,0.1-1.9,0.2V59c0.7,0.2,1.3,0.2,2,0.3
	c1.4,0.1,2.7-0.5,3.7-1.5C104.8,56.6,105.3,55.2,105.3,53.7L105.3,53.7z"/>
<path class="st0" d="M120.8,47.4h-4v0.3l0.2,0c0.8,0.1,1.2,0.4,1.2,0.9c-0.1,0.5-0.2,1-0.4,1.4l-3,7.2l-3.2-7.3
	c-0.1-0.3-0.2-0.6-0.3-0.9c-0.1-0.2-0.1-0.3-0.1-0.5c0-0.2,0.1-0.5,0.3-0.6c0.4-0.2,0.7-0.3,1.1-0.3v-0.3h-5.2v0.3
	c0.4,0,0.8,0.1,1.2,0.4c0.3,0.4,0.6,0.8,0.8,1.3l4.8,10.7h0.3l4.5-10.6c0.2-0.5,0.4-0.9,0.8-1.3c0.3-0.3,0.7-0.5,1.1-0.5L120.8,47.4
	z"/>
<path class="st0" d="M131,56.8c-0.3,0.5-0.4,0.8-0.5,0.9c-0.2,0.2-0.4,0.5-0.6,0.7c-0.3,0.3-0.6,0.5-1,0.7c-0.5,0.1-1.1,0.2-1.7,0.2
	h-2.2c-0.5,0-0.8-0.1-0.9-0.2c-0.1-0.4-0.2-0.8-0.2-1.2v-4.1h2.8c0.5-0.1,1,0.1,1.5,0.3c0.3,0.4,0.5,0.9,0.5,1.4l0,0.2h0.3v-4.4
	h-0.3c0.1,0.5-0.1,1-0.4,1.4c-0.5,0.3-1,0.5-1.6,0.4H124v-4.9h3.5c0.6-0.1,1.2,0.1,1.7,0.4c0.4,0.4,0.7,0.9,0.7,1.5l0,0.2h0.4
	l-0.2-2.7h-9.8v0.3h0.5c0.4-0.1,0.8,0.1,1.1,0.4c0.2,0.5,0.3,1,0.3,1.5v8.1c0.1,0.5,0,1-0.3,1.4c-0.3,0.3-0.7,0.5-1.1,0.4h-0.5v0.3
	h9.8l1.1-3.1L131,56.8z"/>
<path class="st0" d="M143.9,59.9h-3.4l-4.3-5.8h-1.3v3.6c0,0.5,0.1,1,0.3,1.5c0.3,0.3,0.7,0.4,1.1,0.4h0.5v0.3h-5.5v-0.3h0.5
	c0.4,0.1,0.8-0.1,1.1-0.4c0.2-0.4,0.3-0.9,0.3-1.4v-8.1c0.1-0.5,0-1-0.3-1.5c-0.3-0.3-0.7-0.4-1-0.4h-0.5v-0.3h4.6
	c0.9,0,1.4,0,1.6,0c0.4,0,0.7,0.1,1.1,0.2c0.6,0.1,1.1,0.4,1.5,0.8c0.7,0.5,1.1,1.4,1.1,2.2c0,1.7-1,2.7-3.1,3.2l2.6,3.6
	c0.4,0.6,0.9,1.2,1.5,1.6c0.5,0.3,1.1,0.5,1.7,0.5L143.9,59.9z M139,50.8c0-0.7-0.2-1.4-0.7-1.9c-0.6-0.5-1.3-0.7-2-0.7
	c-0.2,0-0.4,0-0.6,0c-0.3,0-0.5,0.1-0.8,0.1v5.2l0.5,0c1,0.1,1.9-0.2,2.7-0.7C138.7,52.3,139.1,51.6,139,50.8L139,50.8z"/>
<path class="st0" d="M154,50.4h-0.4l0-0.2c0-0.6-0.3-1.1-0.7-1.5c-0.5-0.3-1-0.5-1.6-0.5h-1.8v9.5c0,0.5,0.1,1,0.3,1.5
	c0.3,0.3,0.7,0.4,1.1,0.4h0.5v0.3h-5.4v-0.3h0.4c0.4,0.1,0.8-0.1,1.1-0.4c0.2-0.4,0.3-0.9,0.3-1.4v-9.5h-1.5c-0.4,0-0.9,0-1.3,0.1
	c-0.3,0.1-0.5,0.3-0.7,0.5c-0.1,0.2-0.3,0.4-0.4,0.7c-0.1,0.3-0.1,0.5-0.1,0.8h-0.3l0.1-2.9h10.4L154,50.4z"/>
<path class="st0" d="M159.5,59.5H159c-0.4,0.1-0.8-0.1-1.1-0.4c-0.2-0.4-0.3-1-0.3-1.5v-8.1c-0.1-0.5,0-1,0.3-1.5
	c0.3-0.3,0.7-0.4,1.1-0.4h0.4v-0.3H154v0.3h0.4c0.4,0,0.8,0.1,1.1,0.4c0.2,0.5,0.3,1,0.3,1.5v8.1c0,0.5,0,1-0.3,1.5
	c-0.3,0.3-0.7,0.4-1.1,0.4H154v0.3h5.4V59.5z"/>
<path class="st0" d="M168.7,56.7c0,1-0.4,1.9-1.1,2.5c-0.8,0.7-1.9,1-2.9,1c-0.5,0-1.1-0.1-1.6-0.2l-1.1-0.3
	c-0.2-0.1-0.5-0.2-0.7-0.2c-0.3,0-0.5,0.2-0.6,0.7h-0.4v-4.3h0.4c0.1,0.6,0.2,1.2,0.5,1.7c0.2,0.4,0.5,0.8,0.8,1
	c0.7,0.6,1.6,0.9,2.5,0.9c0.7,0,1.3-0.2,1.8-0.6c0.4-0.3,0.7-0.9,0.7-1.4c0-0.6-0.3-1.1-0.7-1.5c-0.1-0.1-0.3-0.2-0.5-0.4
	c-0.1-0.1-0.3-0.2-0.6-0.4l-1.3-0.7c-0.7-0.4-1.3-0.8-1.8-1c-0.4-0.2-0.7-0.5-1-0.8c-0.3-0.3-0.6-0.6-0.8-1
	c-0.2-0.4-0.3-0.8-0.2-1.2c0-0.9,0.4-1.7,1.1-2.3c0.7-0.6,1.7-1,2.6-1c0.4,0,0.7,0,1.1,0.1c0.4,0.1,0.8,0.2,1.1,0.4
	c0.1,0.1,0.3,0.1,0.4,0.2c0.1,0,0.2,0.1,0.3,0.1c0.3,0,0.5-0.3,0.6-0.7h0.4v4.3h-0.4c-0.1-1-0.5-1.9-1.1-2.6c-0.6-0.6-1.5-1-2.4-0.9
	c-0.6,0-1.1,0.2-1.6,0.6c-0.4,0.3-0.7,0.8-0.7,1.3c0,0.6,0.3,1.1,0.9,1.5c0.3,0.2,0.6,0.5,0.9,0.6c0.3,0.2,0.7,0.4,1.4,0.8
	c0.9,0.5,1.6,0.8,1.9,1c0.3,0.2,0.6,0.5,0.9,0.7C168.3,55,168.7,55.9,168.7,56.7z"/>
<path class="st0" d="M174.7,59.5h-0.5c-0.4,0.1-0.8-0.1-1.1-0.4c-0.2-0.4-0.3-1-0.3-1.5v-8.1c0-0.5,0.1-1,0.3-1.5
	c0.3-0.3,0.7-0.4,1.1-0.4h0.4v-0.3h-5.4v0.3h0.4c0.4,0,0.8,0.1,1.1,0.4c0.3,0.5,0.4,1,0.3,1.5v8.1c0.1,0.5-0.1,1-0.3,1.5
	c-0.3,0.3-0.7,0.4-1.1,0.4h-0.4v0.3h5.5L174.7,59.5z"/>
<path class="st0" d="M187.8,47.8h-0.5c-0.4,0-0.8,0.1-1.1,0.4c-0.2,0.5-0.3,1-0.3,1.5v10.5h-0.3L177.3,50l0,7.7c0,0.5,0,1,0.3,1.4
	c0.3,0.3,0.7,0.4,1.1,0.4h0.5v0.3h-4.4v-0.3h0.5c0.4,0.1,0.8-0.1,1.1-0.4c0.2-0.4,0.3-0.9,0.3-1.4v-8.7c-0.3-0.4-0.7-0.7-1.1-1
	c-0.4-0.2-0.7-0.3-1.1-0.3h-0.2v-0.3h3.5l7.8,9.4l0-7.2c0.1-0.5,0-1-0.3-1.5c-0.3-0.3-0.7-0.4-1.1-0.4h-0.5v-0.3h4.4L187.8,47.8z"/>
<path class="st0" d="M200.8,53.1h-4.9v0.3h0.3c0.4,0,0.8,0.1,1.1,0.3c0.2,0.3,0.3,0.7,0.3,1.1v4c-0.8,0.5-1.7,0.7-2.6,0.7
	c-1.4,0-2.7-0.6-3.5-1.7c-1-1.2-1.5-2.8-1.4-4.4c-0.1-1.5,0.4-2.9,1.3-4.1c0.8-1,2.1-1.6,3.4-1.6c2.1,0,3.5,1.1,4.2,3.3h0.4
	l-0.3-3.9h-0.4c0,0.5-0.2,0.8-0.5,0.8c-0.1,0-0.2,0-0.2,0c-0.2-0.1-0.3-0.1-0.5-0.2c-0.7-0.2-1.2-0.4-1.6-0.5
	c-0.4-0.1-0.9-0.1-1.3-0.1c-0.9,0-1.7,0.1-2.6,0.4c-1.2,0.5-2.3,1.3-3,2.5c-0.8,1.1-1.2,2.4-1.2,3.8c0,0.9,0.2,1.9,0.6,2.7
	c0.4,0.8,1,1.6,1.7,2.1c1.4,1,3,1.5,4.8,1.5c0.5,0,0.9,0,1.4-0.1c0.5-0.1,1-0.2,1.5-0.3c0.5-0.2,1-0.4,1.5-0.7v-3.8
	c0-0.5,0-1,0.2-1.4c0.2-0.3,0.6-0.4,1-0.4h0.2L200.8,53.1z"/>
<path class="st0" d="M221.4,59.9h-5.1v-0.3c0.4,0,0.7,0,1-0.2c0.2-0.2,0.3-0.4,0.3-0.7c-0.1-0.4-0.2-0.8-0.4-1.1l-0.8-1.8h-4.9
	l-0.9,2c-0.2,0.3-0.3,0.7-0.3,1c0,0.5,0.4,0.8,1.2,0.8l0.3,0v0.3h-4v-0.3l0.2,0c0.4,0,0.7-0.2,1-0.5c0.4-0.5,0.7-1,0.9-1.6l4.5-10.2
	h0.3l4.4,10.4c0.2,0.6,0.5,1.1,0.9,1.6c0.3,0.3,0.8,0.4,1.2,0.4L221.4,59.9z M216.3,55l-2.2-5.1l-2.2,5.1H216.3z"/>
<path class="st0" d="M230.3,56.7c0,1-0.4,1.9-1.2,2.5c-0.8,0.7-1.9,1-2.9,1c-0.5,0-1-0.1-1.5-0.2l-1.1-0.3c-0.2-0.1-0.5-0.2-0.7-0.2
	c-0.3,0-0.5,0.2-0.6,0.7H222v-4.3h0.3c0.1,0.6,0.2,1.2,0.5,1.7c0.2,0.4,0.5,0.7,0.8,1c0.7,0.6,1.6,0.9,2.5,0.9
	c0.7,0,1.3-0.2,1.8-0.6c0.4-0.3,0.7-0.9,0.7-1.4c0-0.6-0.2-1.1-0.7-1.5c-0.1-0.1-0.3-0.2-0.5-0.4c-0.1-0.1-0.3-0.2-0.6-0.4l-1.3-0.7
	c-0.7-0.4-1.3-0.8-1.8-1c-0.4-0.2-0.7-0.5-1-0.8c-0.3-0.3-0.6-0.6-0.8-1c-0.2-0.4-0.3-0.8-0.3-1.2c0-0.9,0.4-1.7,1.1-2.3
	c0.7-0.7,1.7-1,2.7-1c0.4,0,0.7,0,1,0.1c0.4,0.1,0.8,0.2,1.1,0.4c0.1,0.1,0.3,0.1,0.5,0.2c0.1,0,0.2,0.1,0.3,0.1
	c0.3,0,0.5-0.3,0.6-0.7h0.4v4.3h-0.4c-0.1-1-0.5-1.9-1.2-2.6c-0.6-0.6-1.5-1-2.4-0.9c-0.6,0-1.1,0.2-1.6,0.6
	c-0.4,0.3-0.7,0.8-0.7,1.3c0,0.6,0.3,1.1,0.9,1.5c0.3,0.2,0.6,0.5,0.9,0.6c0.3,0.2,0.7,0.4,1.4,0.8c0.9,0.5,1.6,0.8,1.9,1
	c0.3,0.2,0.6,0.5,0.9,0.7C230,55,230.4,55.9,230.3,56.7z"/>
<path class="st0" d="M240.1,56.7c0,1-0.4,1.9-1.1,2.5c-0.8,0.7-1.9,1-2.9,1c-0.5,0-1.1-0.1-1.6-0.2l-1.1-0.3
	c-0.2-0.1-0.5-0.1-0.7-0.2c-0.3,0-0.5,0.2-0.6,0.7h-0.4v-4.3h0.4c0.1,0.6,0.2,1.2,0.5,1.7c0.2,0.4,0.5,0.7,0.8,1
	c0.7,0.6,1.6,0.9,2.5,0.9c0.7,0,1.3-0.2,1.8-0.6c0.4-0.3,0.7-0.9,0.7-1.4c0-0.6-0.2-1.1-0.7-1.5c-0.1-0.1-0.3-0.3-0.4-0.4
	c-0.1-0.1-0.3-0.2-0.6-0.4l-1.3-0.7c-0.7-0.4-1.3-0.8-1.8-1c-0.4-0.2-0.7-0.5-1-0.8c-1.2-1.1-1.3-3.1-0.2-4.3
	c0.1-0.1,0.2-0.2,0.3-0.2c0.7-0.6,1.7-1,2.7-1c0.4,0,0.7,0,1.1,0.1c0.4,0.1,0.7,0.2,1.1,0.4c0.1,0.1,0.3,0.1,0.5,0.2
	c0.1,0,0.2,0.1,0.3,0.1c0.3,0,0.5-0.3,0.6-0.7h0.4v4.3h-0.4c-0.1-1-0.5-1.9-1.1-2.6c-0.6-0.6-1.5-1-2.4-0.9c-0.6,0-1.1,0.2-1.6,0.6
	c-0.4,0.3-0.7,0.8-0.7,1.3c0,0.6,0.3,1.1,0.8,1.5c0.3,0.2,0.6,0.4,0.9,0.6c0.3,0.2,0.7,0.4,1.4,0.8c0.9,0.5,1.6,0.8,1.9,1
	c0.3,0.2,0.6,0.5,0.9,0.7C239.7,55,240.1,55.9,240.1,56.7z"/>
<path class="st0" d="M253.3,53.6c0.1,1.7-0.6,3.4-1.8,4.7c-2.4,2.5-6.4,2.5-8.8,0.1c0,0-0.1-0.1-0.1-0.1c-1.2-1.3-1.8-3-1.8-4.7
	c0-1.6,0.5-3.2,1.6-4.4c0.6-0.7,1.3-1.2,2.2-1.6c0.8-0.4,1.7-0.6,2.6-0.5c1.6,0,3.2,0.7,4.3,1.9C252.7,50.2,253.3,51.9,253.3,53.6z
	 M251.2,53.8c0.1-1.6-0.3-3.1-1.1-4.5c-0.7-1-1.8-1.6-3.1-1.6c-1.2-0.1-2.3,0.5-3,1.5c-0.8,1.3-1.1,2.8-1.1,4.2
	c-0.1,1.5,0.3,3,1.1,4.4c0.6,1,1.8,1.6,3,1.6c1.2,0,2.3-0.5,3-1.5C250.9,56.8,251.2,55.3,251.2,53.8z"/>
<path class="st0" d="M264.9,56.8l-0.1,0.1c-0.5,0.8-1.2,1.4-1.9,1.9c-0.7,0.4-1.5,0.6-2.2,0.5c-1.3,0.1-2.6-0.5-3.5-1.4
	c-0.9-1.2-1.3-2.6-1.3-4.1c-0.1-1.6,0.3-3.1,1.2-4.4c0.8-1.1,2-1.7,3.3-1.6c0.7,0,1.3,0.1,1.9,0.4c0.6,0.3,1.1,0.6,1.4,1.1
	c0.2,0.3,0.4,0.6,0.5,0.8c0.2,0.4,0.3,0.8,0.4,1.2h0.3l-0.3-4.2h-0.3c-0.1,0.6-0.4,0.8-0.8,0.8c-0.2,0-0.4-0.1-0.6-0.2
	c-0.9-0.4-1.8-0.6-2.7-0.6c-1.7,0-3.4,0.6-4.6,1.9c-1.2,1.3-1.9,3-1.9,4.8c-0.1,1.7,0.6,3.4,1.7,4.6c1.2,1.2,2.8,1.8,4.5,1.7
	c2.2,0,4.3-1.2,5.3-3.2L264.9,56.8z"/>
<path class="st0" d="M270.9,59.9h-5.4v-0.3h0.4c0.4,0.1,0.8-0.1,1.1-0.4c0.2-0.5,0.3-1,0.3-1.5v-8.1c0-0.5-0.1-1-0.3-1.5
	c-0.3-0.3-0.7-0.4-1.1-0.4h-0.4v-0.3h5.4v0.3h-0.4c-0.4,0-0.8,0.1-1.1,0.4c-0.2,0.5-0.3,1-0.3,1.5v8.1c0,0.5,0.1,1,0.3,1.5
	c0.3,0.3,0.7,0.4,1.1,0.4h0.4V59.9z"/>
<path class="st0" d="M284.1,59.9H279v-0.3c0.4,0,0.7,0,1-0.2c0.2-0.1,0.3-0.4,0.3-0.7c-0.1-0.4-0.2-0.8-0.4-1.1l-0.8-1.8h-4.9
	l-0.9,2c-0.2,0.3-0.3,0.7-0.3,1c0,0.5,0.4,0.8,1.2,0.8l0.3,0v0.3h-4v-0.3l0.2,0c0.4,0,0.7-0.2,1-0.5c0.4-0.5,0.7-1,0.9-1.6l4.5-10.2
	h0.3l4.4,10.4c0.2,0.6,0.5,1.1,0.9,1.6c0.3,0.3,0.8,0.4,1.3,0.4L284.1,59.9z M279,55l-2.2-5.1l-2.2,5.1H279z"/>
<path class="st0" d="M294.4,47.4H284l-0.1,2.9h0.4c0-0.3,0-0.5,0.1-0.8c0.1-0.2,0.2-0.5,0.4-0.7c0.2-0.2,0.4-0.4,0.7-0.5
	c0.4-0.1,0.9-0.2,1.3-0.1h1.5v9.5c0,0.5-0.1,1-0.3,1.4c-0.3,0.3-0.7,0.4-1.1,0.4h-0.4v0.3h5.4v-0.3h-0.5c-0.4,0-0.8-0.1-1.1-0.4
	c-0.2-0.5-0.3-1-0.3-1.5v-9.5h1.8c0.6,0,1.1,0.1,1.6,0.5c0.4,0.4,0.7,0.9,0.7,1.5l0,0.2h0.3L294.4,47.4z"/>
<path class="st0" d="M300,59.9h-5.5v-0.3h0.4c0.4,0.1,0.8-0.1,1.1-0.4c0.2-0.4,0.4-1,0.3-1.5v-8.1c0-0.5-0.1-1-0.3-1.5
	c-0.3-0.3-0.7-0.4-1.1-0.4h-0.4v-0.3h5.5v0.3h-0.5c-0.4,0-0.8,0.1-1.1,0.4c-0.3,0.5-0.4,1-0.3,1.5v8.1c-0.1,0.5,0.1,1,0.3,1.5
	c0.3,0.3,0.7,0.4,1.1,0.4h0.5V59.9z"/>
<path class="st0" d="M312.7,53.6c0.1,1.7-0.6,3.4-1.8,4.7c-2.4,2.5-6.4,2.5-8.9,0.1c0,0,0,0-0.1-0.1c-1.2-1.3-1.8-3-1.8-4.7
	c0-1.6,0.5-3.2,1.6-4.4c0.6-0.7,1.3-1.2,2.2-1.6c0.8-0.4,1.7-0.6,2.6-0.5c1.7,0,3.2,0.7,4.4,1.9C312.1,50.2,312.8,51.9,312.7,53.6z
	 M310.6,53.8c0.1-1.6-0.3-3.1-1.1-4.5c-0.7-1-1.8-1.6-3.1-1.6c-1.2-0.1-2.3,0.5-3,1.5c-0.8,1.3-1.1,2.8-1.1,4.2
	c-0.1,1.5,0.3,3,1.1,4.4c0.6,1,1.8,1.6,3,1.6c1.2,0,2.3-0.5,3-1.5C310.3,56.8,310.7,55.3,310.6,53.8z"/>
<path class="st0" d="M326.1,47.4h-4.4v0.3h0.4c0.4-0.1,0.8,0.1,1.1,0.4c0.3,0.4,0.4,1,0.3,1.5l0,7.2l-7.8-9.4h-3.4v0.3h0.2
	c0.4,0,0.8,0.1,1.1,0.3c0.4,0.3,0.8,0.6,1.1,1v8.7c0,0.5-0.1,1-0.3,1.4c-0.3,0.3-0.7,0.4-1.1,0.4h-0.5v0.3h4.5v-0.3h-0.5
	c-0.5,0-0.9-0.1-1.1-0.4c-0.2-0.4-0.3-0.9-0.3-1.4l0-7.7l8.4,10.1h0.3V49.6c0-0.5,0-1,0.3-1.5c0.3-0.3,0.7-0.4,1.1-0.4h0.4
	L326.1,47.4z"/>
</svg>
