<svg id="Layer_1" data-name="Layer 1" xmlns="http://www.w3.org/2000/svg" viewBox="0 0 496.126 148.996"><defs><style>.cls-1{fill:#efe9de;stroke-width:0.773px;}.cls-1,.cls-2,.cls-3{stroke:#a37b2f;stroke-miterlimit:3.864;}.cls-2{fill:#d3be9a;}.cls-2,.cls-3{stroke-width:0.515px;}.cls-3{fill:#fff;}.cls-4{fill:#a37b2f;}.cls-5{fill:#221e1f;}</style></defs><title>logo</title><path class="cls-1" d="M85.41.386a67.3,67.3,0,1,1-67.3,67.289A67.28,67.28,0,0,1,85.41.386Z"/><path class="cls-2" d="M85.41,28.77A38.9,38.9,0,1,1,46.5,67.675,38.918,38.918,0,0,1,85.41,28.77Z"/><path class="cls-3" d="M85.41,40.657A27.022,27.022,0,1,1,58.4,67.675,27.023,27.023,0,0,1,85.41,40.657Z"/><path class="cls-4" d="M26.552,58.864c1,.241,1.4.755,1.208,1.6-.124.513-.831.811-2.193.923a7.818,7.818,0,0,0-3.3.924l-.244-.185C23.712,59.651,25.226,58.551,26.552,58.864Zm5.69,1.437a1.2,1.2,0,0,1,1.076,1.567c-.125.546-.863.884-2.237,1a6.609,6.609,0,0,0-3.425,1.076l-.285-.265C29.154,61.105,30.764,59.98,32.242,60.3ZM47.036,49.234l.325.185c-1.245,2.94-3.024,4.771-5.377,5.509a11.919,11.919,0,0,1,2.2,3.655,10.661,10.661,0,0,1,.081,4.136l-.349-.024a11.727,11.727,0,0,0-4.823-6.136l-.744,3.157a3.791,3.791,0,0,0,.382,1.276l-1.454.507.27-1.181-9.369-2.169a3.677,3.677,0,0,1,.3,1.253l-.313.1a5.886,5.886,0,0,0-2.924-1.944.679.679,0,0,0-.823.4l-.409-.1L23.845,53.5a13.536,13.536,0,0,1,2.048.988,5.227,5.227,0,0,1-.1-3.02l.875-3.823a1.974,1.974,0,0,1,2.7-1.631l10.586,2.466-.072-.53,1.209-.1L39.884,53.1a5.293,5.293,0,0,1,1.245.98l1.449-3.357.3.056a.821.821,0,0,0,.606.5Q44.733,51.6,47.036,49.234ZM34.495,60.9c4.1.972,7.115,2.611,9.091,4.9l-4.67.746-.145-.353a1.143,1.143,0,0,0,.578-.595c.057-.264-.333-.811-1.236-1.67A22.126,22.126,0,0,0,34.358,61.2Zm5.092-9.356L27.828,48.825a.635.635,0,0,0-.871.466l-.542,2.329a5.343,5.343,0,0,0,.184,3.059l5.739,1.334-.257-1.847.771.169a5.526,5.526,0,0,1,3.43,2.112l-.213.208a16.392,16.392,0,0,0-2.8-.907.421.421,0,0,0-.549.345l5.513,1.269.245-1c-.277-.072-.458-.032-.526.129l-.353-.081.008-4.449a18.564,18.564,0,0,1,1.7.811Zm-10.5-2.217a3.463,3.463,0,0,1,2.264,1.911l-.2.153a3.345,3.345,0,0,0-1.149-.579.325.325,0,0,0-.386.161l-.28-.048Zm1.16,4.265a.523.523,0,0,1,.466.658c-.073.3-.434.418-1.073.338a2.719,2.719,0,0,0-1.425.144l-.168-.2C28.929,53.764,29.643,53.426,30.25,53.588Zm2.3-3.6-.414,1.735,5.245,1.229L36.928,54.9l-5.237-1.2-.136.57a4.369,4.369,0,0,0,.181.892l-1.137.361.47-1.96-2.992-.707a2.008,2.008,0,0,0,.117,1.133l-1.257.5.871-3.775a3.188,3.188,0,0,0-.2-1.14l1.208-.394-.4,1.719,3.1.7.1-.442a3.242,3.242,0,0,0-.257-.884Zm3.831,1a.687.687,0,0,1,.627.892c-.093.409-.4.57-.892.45a.246.246,0,0,1-.1-.041c-.518-.144-.919-.24-1.216-.321a6.922,6.922,0,0,0-2.016-.2l-.108-.265A5.335,5.335,0,0,1,36.382,50.985Z"/><path class="cls-4" d="M57.011,33.059c1.3,1.02,1.406,2.184.329,3.6a3.832,3.832,0,0,1-2.875,1.422l-.189-.619a2.175,2.175,0,0,0,1.442-.562c.249-.313.06-.715-.586-1.237l-8.2-6.409L43.751,33.34l-5.542-4.329a.526.526,0,0,0-.811.072l-.269-.193,1.2-3.63.843.675a3.965,3.965,0,0,1,.956-2.345c1.2-1.535,2.333-1.888,3.469-1.02ZM43,34.288l-3.124,4.04,10.039,7.838L47.96,48.68,32.3,36.456c-.217-.176-.462-.144-.791.064l-.221-.168,1.3-3.718.84.65a4.5,4.5,0,0,1,.931-2.354c1.084-1.389,2.153-1.678,3.245-.851Zm.2-7.951-2.173-1.7c-.237-.185-.466-.121-.743.193a2.617,2.617,0,0,0-.445,1.614l2.036,1.582ZM37.294,33.9l-2.1-1.638a.461.461,0,0,0-.7.056,2.146,2.146,0,0,0-.317,1.534l1.951,1.534Zm9-5.156-2.438-1.9-1.329,1.719,2.434,1.888Zm-5.915,7.566-2.418-1.9L36.775,35.9l2.442,1.9Z"/><path class="cls-4" d="M69.886,11.679l-2.165.964,1.048,2.345-8.758,3.9L58.974,16.53l-.666.3a1.944,1.944,0,0,0-.642.562L56.577,16.8l2.1-.916-.213-.473a.534.534,0,0,0-.627-.346l-.136-.321,2.887-2.233.931,2.105,3.036-1.35-.249-.554a.64.64,0,0,0-.762-.345l-.1-.265L66.5,9.9l.924,2.088.49-.209c.177-.088.341-.393.538-.939Zm-1.33-3.1L55.365,14.442l7.087,15.9c.574,1.317.3,2.225-.859,2.771a2.721,2.721,0,0,1-2.851-.586l.172-.3a.809.809,0,0,0,.792.176c.136-.072.168-.176.1-.353L52.666,16.024a.6.6,0,0,0-.622-.361l-.1-.234,2.787-2.449.341.8,4.976-2.208-.109-.233c-.092-.193-.269-.25-.558-.241l-.12-.233,3.14-2.2.687,1.55L66.34,8.772c.184-.081.4-.426.666-1.06Zm2.984,6.754L66.5,17.566l.51,1.109,2.37-1.053c1.433-.626,2.5-.184,3.176,1.325l1.746,3.944-11.918,5.3-1.815-4.08a.7.7,0,0,0-.739-.458l-.136-.313,2.778-2.482.261.627a2.47,2.47,0,0,1,1.378-1.326l-.542-1.293-3.306,1.47a4.152,4.152,0,0,0-.955.867l-1.2-.682,11.156-4.98c.229-.1.41-.442.538-1.068Zm4.377,9.807c.386.891.281,1.461-.337,1.743-.346.152-.928.024-1.812-.362a8.489,8.489,0,0,0-3.846-.915l-.061-.362c.241-.136.538-.257.852-.425C73.528,23.566,75.23,23.662,75.917,25.14Zm-8.55,1.14c.45,2.555-.98,4.6-4.32,6.177l-.169-.225a3.129,3.129,0,0,0,1.008-1.462,2.067,2.067,0,0,0,.136-1.4c-.064-.137-.213-.169-.449-.137l-.125-.281ZM65.6,15.614l-.755-1.694-3.027,1.365.738,1.671Zm4.37,5.028L69.3,19.133c-.169-.378-.422-.5-.748-.346l-1.245.562.912,2.064Zm-4.7,2.088-.847-1.895h-.04A1.908,1.908,0,0,0,63.107,22.3l.522,1.164Zm5.955.739-.959-2.176-1.751.762.968,2.2Zm-4.7,2.1-.955-2.184-1.659.739.968,2.184Z"/><path class="cls-4" d="M95.859,14.747l-7.392-.257-.061,1.952-3.425-.137.064-1.943-5.02-.169a6.944,6.944,0,0,0-1.971.618l-.84-1.55,7.855.273.217-5.967-2.943-.1a5.06,5.06,0,0,1-4.94,2.955l-.093-.345a3.61,3.61,0,0,0,1.346-1.422,4.647,4.647,0,0,0,.7-2.112.91.91,0,0,0-.382-.8l0-.338,4.064-.979a10.177,10.177,0,0,1-.458,2.24l2.707.089.012-.707a1.776,1.776,0,0,0-.285-.305c-.04-.04-.085-.057-.117-.137l.008-.3L88.8,4.5l-.085,2.393,3.739.113a3.723,3.723,0,0,0,2-.788l1.16,1.744-6.931-.249-.2,5.975,4.622.16a5.989,5.989,0,0,0,1.8-.722Zm-1.112,11.7-17.031-.6.237-6.835a.707.707,0,0,0-.57-.778l.012-.4,4.265-1.373-.021,1.068a6.942,6.942,0,0,1,3.426-.755l8.188.3a1.692,1.692,0,0,1,1.225.659A2.106,2.106,0,0,1,95,19.164Zm-3.474-.956.217-6.24c.036-.924-.245-1.406-.843-1.438l-5.626-.193a6.212,6.212,0,0,0-3.426.811l-.237,6.715Z"/><path class="cls-4" d="M134.1,33.99a5.658,5.658,0,0,1-2.545.458c.333.739.321,1.261-.1,1.591-.53.417-.952.4-1.317-.025a3.214,3.214,0,0,1-.217-1.445,3.144,3.144,0,0,1-.048-.667,10.653,10.653,0,0,1-2.727-2.064l.237-.257a6.942,6.942,0,0,0,2.309.924,4.721,4.721,0,0,0-.429-1.824l.236-.168a8.869,8.869,0,0,1,1.257,2.176.843.843,0,0,0,.571-.152.361.361,0,0,0,.128-.482l.285-.233Zm-3.2,10.426L128.949,41.9l1.956-1.551c.618-.481.743-.964.341-1.469l-3.55-4.546A11.352,11.352,0,0,0,123.982,31l-2.2,1.726-1.96-2.513,2.153-1.663a.6.6,0,0,0,.233-.746l.285-.209,1.189.65,3.4-2.667-.831-.778.232-.338a5.459,5.459,0,0,0,1.9.281,2.705,2.705,0,0,0,1.5-.249.372.372,0,0,0,.129-.53l.264-.208,3.382,2.85a5.777,5.777,0,0,1-3.646.563l-.318.265.189.257a3.14,3.14,0,0,0,1.044.682l-.377,1.414L129.086,27.9l-1.647,1.284.281.362a3,3,0,0,0,1.145.715L128.4,31.67l-1.57-2.016-1.574,1.236a13.646,13.646,0,0,1,3.024,2.98l3.782,4.835,1.306-1.012-.346-.45a3.385,3.385,0,0,0-.979-.7l.389-1.3,1.55,1.976,1.687-1.333-.523-.659a2.385,2.385,0,0,0-.879-.618l.329-1.165a.772.772,0,0,1-1-.208,2.068,2.068,0,0,1-.2-1.229c0-.257,0-.466,0-.626a11.375,11.375,0,0,1-2.71-1.84l.265-.337a7.833,7.833,0,0,0,2.229.795,8.859,8.859,0,0,0-.466-2.1l.285-.129a12.8,12.8,0,0,1,1.229,2.313.752.752,0,0,0,.5-.1c.1-.072.1-.225-.02-.474l.269-.217,2.4,2.209c-.413.112-.642.184-.715.209l2.262,2.891a1.9,1.9,0,0,1-.438,2.98l-4.775,3.742q.222.723-.611,1.374Zm-2.595,2.344-4.569-5.854-2.321,1.839a2.129,2.129,0,0,1-3.35-.386,5.267,5.267,0,0,1-1.072-3.79l.539-.064a2.987,2.987,0,0,0,.413,1.967c.173.225.386.225.654.024l2.989-2.3-3.462-4.449a2.867,2.867,0,0,0-1.145-.683l.438-1.518,4.783,6.152,1.225-.964c2.168.884,3.313,1.269,3.493,1.149.065-.057.052-.145-.048-.322l-2.819-3.606a3.147,3.147,0,0,0-1.068-.738l.373-1.39,6.116,7.823a.991.991,0,0,1-.169,1.55c-.542.4-2.1.112-4.754-.916l-.193.145,3.209,4.128a3.526,3.526,0,0,0,1.277.674ZM136.294,35.4l1.052-.819c.261-.217.3-.418.137-.635l-.37-.474a3.266,3.266,0,0,0-.988-.666l.33-1.044a7.162,7.162,0,0,1-1.446.048c.374.619.334,1.1-.088,1.446a.793.793,0,0,1-.213.12Z"/><path class="cls-4" d="M144.707,65.811A3.137,3.137,0,0,1,143,63.594a3.032,3.032,0,0,1,.824-2.409l-1.8-10.24a11.35,11.35,0,0,1-1.991-3.148l.337-.2a7.159,7.159,0,0,0,2,.98,4.477,4.477,0,0,0,1.819.265c.337-.056.5-.233.466-.514l.333-.048,2.072,4.449a4.025,4.025,0,0,1-1.08-.112,9.286,9.286,0,0,1,1.611,4.2l.457,2.586a2.64,2.64,0,0,1-.739,2.739c-1.907,1.462-2.811,2.426-2.739,2.868a.717.717,0,0,0,.446.5Zm-8.337.731-3.04-17.251,4.952-.876a.575.575,0,0,0,.538-.554l.39-.064,1.638,3.525-1.052.193a5.132,5.132,0,0,1,1.365,2.82l1.542,8.754c.266,1.5-.4,2.409-2.016,2.707Zm-8.686.924-2.911-16.481,5.457-.964c.454-.08.671-.272.7-.618l.353-.064,1.9,3.534-1.381.249a8.539,8.539,0,0,1,1.762,3.622l1.237,6.979a2.172,2.172,0,0,1-1.972,2.843Zm16.774-6.883a14.449,14.449,0,0,1,1.711-1.3c.654-.442.924-.9.847-1.454l-.241-1.389a7.359,7.359,0,0,0-1.711-3.936,8.415,8.415,0,0,1-2.18-.891Zm-7.943,2.482,4.012-.723a1.106,1.106,0,0,0,1.048-1.4l-.466-2.594-5.261.932Zm-1.237-7.012,5.265-.923-.113-.675a4.356,4.356,0,0,0-1.441-2.8l-4.346.763Zm-4.072,7.389,1.655-.273a.993.993,0,0,0,.859-1.3l-.892-5.052a8.737,8.737,0,0,0-1.847-3.55l-1.53.265Zm-3.369.61,2.634-.465-1.747-9.927-2.642.466Zm13.2-2.064c-2.518-.04-4.112-.843-4.775-2.369l.265-.217a3.228,3.228,0,0,0,2.418.418c.309-.04.409-.217.381-.546l.337-.08ZM136.9,55.234c-.911.169-1.433-.129-1.59-.868-.084-.5.362-.891,1.354-1.2a4.829,4.829,0,0,0,2.144-1.077l.321.193C138.651,54.069,137.9,55.041,136.9,55.234Z"/><path class="cls-4" d="M121.408,115.43c3.316,5.469,11.866,10.3,14.717,9.758,3.334-.8,1.824-7.438-2.754-16.5-3.454-6.834-13.353-15.709-20.931-20.176C114.26,99.3,117.641,108.973,121.408,115.43ZM85.334,71.169c7.22,1.349,10.425,5.034,16.73,8.273C98.1,54.873,99.453,28.8,109.838,14.514,96.538,25.9,86.579,51.74,85.334,71.169ZM57.075,108.475c-9.822,1.742-18.428,1.992-25.48.457-8.867-1.807-14.862-6.08-17.408-12.738-1.631-4.256-1.056-8.819,1.538-13.1,2.972-4.426,7.891-7.9,14.453-10.425a66.982,66.982,0,0,1,11.886-3.3c3.173-.57,6.381-1.052,9.658-1.365a118.192,118.192,0,0,1,23.806,1.623c7.609-31.854,32.037-60.944,47.3-66.461.562-.209,8.116,3.051,5.839,4.537-26.3,17.2-22.4,47.394-16.734,76.211,11.317,6.666,25.609,15.774,29.56,30.416,1.575,5.918.948,12.248-3.971,14.457-8.959,2.659-17.718-4.924-22.46-10.972-4.771-7.123-9.429-16.3-12.461-33.7-7.032-5.1-14.361-8.778-17.621-9.541C83.792,84.549,82,91.424,78.21,98.348l3.429-1.318,3.229-1.237,5.454-2.088.778.328.411,1.125-.326.764A19.945,19.945,0,0,1,86.8,98.338c-1.747.676-3.964,1.848-6.55,2.844l-3.421,1.285a125.615,125.615,0,0,1-13.613,22,59.034,59.034,0,0,1-4.362,4.947,63.6,63.6,0,0,1-23.2,15.83c-8.316,3.182-15.782,4.45-22.456,3.383-6.449-.8-10.867-3.455-12.5-7.695a10.173,10.173,0,0,1,1.265-9.709c2.365-3.246,6-5.912,11.175-7.889a70.649,70.649,0,0,1,11.253-3.043,48.43,48.43,0,0,1,11.834-.947l.591.723-.3.867-.731.594a39.122,39.122,0,0,0-9.755,1.1,36.381,36.381,0,0,0-7.425,2.207c-3.694,1.43-6.63,3.166-7.987,5.719a8.123,8.123,0,0,0-.622,7.775c1.2,3.131,4.252,5.244,8.927,6.112,4.854.787,10.469-.1,16.468-2.385,5.454-2.1,10.682-6.449,16.027-12.418a77.638,77.638,0,0,0,8.75-13.123c1.771-3.123,3.466-6.408,5.1-9.91C62.476,107.365,59.746,107.977,57.075,108.475ZM43.1,72.044a47.022,47.022,0,0,0-7.65,2.216c-6.092,2.33-10.469,5.277-13.1,8.932-2.7,4.015-3.414,8.216-1.852,12.289,2.2,5.724,7.5,9.306,15.67,10.736,5.783.957,12.356.668,19.778-.689,3.365-.651,6.819-1.575,10.541-2.676,1.362-2.537,2.474-6.24,4.024-10.778,1.622-4.746,3.16-13.693,4.594-19.3-7.919-.731-15.015-2.04-21.806-1.759A47.851,47.851,0,0,0,43.1,72.044Z"/><path class="cls-5" d="M177.114,55.145v.249a3.331,3.331,0,0,1,1.237,2.5c-.161,1.342.305,2.113,1.381,2.314h.274a2.319,2.319,0,0,0,1.791-1.783,2.718,2.718,0,0,0-.113-1.189A4.957,4.957,0,0,0,178,54.792h-.611A.379.379,0,0,0,177.114,55.145Zm7.438-1.55q-3.94,8.337-4.546,9.927c-.466,1.2-.8,1.743-1.012,1.623l-1.494-.177-.241.177v.362a4.572,4.572,0,0,1,2.345,3.324l-.185,3.566c.233,1,.763,1.51,1.583,1.55h.61c1.205-.289,1.847-.875,1.928-1.791l-.065-1.253a14.429,14.429,0,0,1-.73-4.441,18.292,18.292,0,0,1,.369-3.51l1.373-5.782c.707-2.595,1-3.9.875-3.944l-.3-.209h-.129C184.761,53.057,184.616,53.25,184.552,53.6Zm-5.309-6.826v.144a3.826,3.826,0,0,1,1.437,2.931c-.128,1.543.322,2.378,1.3,2.506h.651l.169-.072q1.314-.12,1.606-1.879l-.04-.8a3.062,3.062,0,0,0-.675-1.253,6.918,6.918,0,0,0-3.751-1.823H179.6ZM192.1,46.15c-.121,1.952-.425,3.189-.916,3.694h-1.237c-2.345-1-3.582-1.437-3.693-1.316h-.209l-.2.136v.177l.281.755V57.41a67.749,67.749,0,0,1-.08,7.1l.048.024c-.113.081.161.217.819.434h.707c1.044-.128,1.574-.4,1.6-.827V62.406a19.988,19.988,0,0,0,3.824-2.626l.176.241v3.5l.121.185-.6.064c-.867-.088-1.269,0-1.188.241v.193l.176.458v1.084l-.112.41h-3.132c-3.036.032-4.562,0-4.562-.121l-.113.121v.12l.306.61.947-.2h6.49v.385a7.637,7.637,0,0,1-2.442,4.008,16.145,16.145,0,0,1-5.75,2.811v.241l.329.185a14.759,14.759,0,0,0,6.208-1.43,8.972,8.972,0,0,0,5.156-5.895h.065l.241.346q2.253,6.035,7.164,6.738h.4l.241-.129a6.287,6.287,0,0,1,2.192-2.98v-.16c-.04-.161-.169-.257-.4-.289q-5.652-.181-8.715-3.526v-.056l.37-.249h8.866c.289-.185.41-.338.37-.41v-.185l-.176-.281a7.2,7.2,0,0,0-1.559-1.493c-1.027-.53-1.413-.876-1.188-1.053l-.128-1.453V51.4c.658-.546.947-.892.915-1v-.313l-.242-.369a9.14,9.14,0,0,0-2.682-1.615h-.305l-.37.3-1,1.437h-5.63l.274-.425a7.527,7.527,0,0,1,2.216-1.381c.546-.217.788-.362.707-.45v-.177l-.128-.185a16.343,16.343,0,0,0-3.695-1.18h-.5Zm3.261,4.249.24.177v.032l-.112.112-1.253.619a39.509,39.509,0,0,1-4.514,1.485v.193l.129.1H190l3.228-.1v3.012a2.1,2.1,0,0,1-.418.434h-.369v-.2l.129-.289v-.45a2.616,2.616,0,0,0-2.2-1.992h-.128l-.177.121V53.9l.426,1.124a4.033,4.033,0,0,1-.185,1.438h-.634c-.37-.249-.507-.418-.443-.49V50.784a.78.78,0,0,1,.443-.385Zm-3.807,6.642.425.241v.056l-.184.49a10.518,10.518,0,0,1-2.434,3.622h-.137V57.467a.793.793,0,0,1,.443-.426Zm8.16,0v7.1c-.033.241.225.393.771.45l.8-.057.072.129v.112l-.024.065a5.617,5.617,0,0,1-.674,1.317h-5.478l.064-.41c-.128-.1.137-.482.787-1.084v-.281l-.12-.177-.907-.249c-.555-.048-.788-.1-.707-.185v-.064c.747-.113,1.188-.313,1.3-.57V58.221h.129a.863.863,0,0,1,.369.362l.627,1.261c.249,1.623.546,2.345.892,2.2h.361a1.809,1.809,0,0,0,1.253-1.47v-.442c-.193-.731-.474-1.205-.819-1.357a10.586,10.586,0,0,0-2.683-1.309.71.71,0,0,1,.434-.426Zm0-6.257v5.245h-.1l-1.252-.819h-.25l-.184.112a2.861,2.861,0,0,0-.7,1.141h-1v-.129l.088-.12a18.68,18.68,0,0,0,2.683-2.386v-.112l-.112-.185a4.791,4.791,0,0,0-1.655-.65h-.249a8.054,8.054,0,0,1-1.374,2.794V52.881l1.559-.354c1.141-.249,1.719-.426,1.719-.562v-.136l-.1-.249-1.245-1.069V50.4H199.3A.918.918,0,0,1,199.715,50.784Z"/><path class="cls-5" d="M244.467,46.6h.473a4.74,4.74,0,0,1,2.514,1.253l.353.394v.425a2.161,2.161,0,0,1-.795.883v5.55l.129,2.016V57.9c-.5.394-.859.546-1.068.466l-.064.057h-1.542c-.6-.105-.82-.563-.643-1.366l-.369-.281h-3.173a.784.784,0,0,0-.394.394v12.8a22.468,22.468,0,0,1,.113,3.51,2.7,2.7,0,0,1-1.478.667H237.27c-.5-.112-.739-.241-.739-.361V48.182l-.128-1.124a.822.822,0,0,1,.369-.338h.369a17.509,17.509,0,0,1,3.438,1.133l.072.056h2.675A3.292,3.292,0,0,1,244.467,46.6Zm-4.185,2.016a.723.723,0,0,0-.394.418v2.321c-.08.088.048.233.394.482h3.173c.321-.249.466-.394.417-.482V49.034a.991.991,0,0,0-.417-.418Zm0,3.919a.748.748,0,0,0-.394.442V55.6c-.08.065.048.209.394.45h3.173c.321-.241.466-.385.417-.45V52.977a1.02,1.02,0,0,0-.417-.442Zm16.794-6.111h.675a6.836,6.836,0,0,1,3.132,1.823v.49c.048.168-.225.449-.811.875V66.229a36.98,36.98,0,0,1,.12,4.289,4.771,4.771,0,0,1-3.422,3.389h-1.059c-.4.04-.626-.506-.707-1.622-.128-.627-.82-1.365-2.1-2.185v-.3l.129-.113,2.168.113,1.061-.153c.241-.08.393-.329.45-.73V56.993a.838.838,0,0,0-.4-.394h-3.341c-.274,0-.457.378-.578,1.124l-1.133.362h-1.18c-.482-.072-.756-.257-.8-.538q.193-1.312.065-9.75l-.065-.08v-.6c.129-.2.242-.314.378-.337h.3a13.494,13.494,0,0,1,2.955.94l.065.08h3.044l.94-1.261ZM252.964,48.5a.688.688,0,0,0-.385.409v2.329c-.1.088.031.249.385.474h3.341c.321-.225.45-.386.4-.474V48.905a.872.872,0,0,0-.4-.409Zm0,3.927a.724.724,0,0,0-.385.418v2.57c-.1.072.031.241.385.457h3.341c.321-.216.45-.385.4-.457v-2.57a.927.927,0,0,0-.4-.418Z"/><path class="cls-5" d="M304.294,46.424h1.614a5.241,5.241,0,0,1,2.683.939v.546l-.724.763v.634c-.1.089.049.249.418.491h5.823l1.309-1.944.369-.378h.893a4.881,4.881,0,0,1,2.481,2.2V50.1c.048.08-.057.233-.321.442H297.394a.592.592,0,0,0-.418.385V62.6a16.17,16.17,0,0,1-5,11.059l-.129.072h-.24l-.178-.184a26.956,26.956,0,0,0,2.434-11.71V51.66a9.072,9.072,0,0,0-.586-2.626l.313-.241h.514l2.755.762.53.242h6.474c.329-.242.466-.4.426-.491v-1.4l-.306-.964v-.281Zm11.066,9.934h.555a5.119,5.119,0,0,1,2.546,2.129v.24c.048.089-.073.234-.362.426h-9.116a.815.815,0,0,0-.392.394v1.317c-.081.088.055.249.392.49H311.8l1.124-1.317h.554a7.36,7.36,0,0,1,2.442,1.188c.321.242.482.4.482.491v.3q-.433.459-.916.892v3.245a6.2,6.2,0,0,1,.113,1.928,2.708,2.708,0,0,1-1.052.521l-1.325.065a1.447,1.447,0,0,1-1.3-1.02h-8.208c-.064.1.161.233.707.434a12.166,12.166,0,0,1,2.192,1.317l.369.329v.482a17.708,17.708,0,0,0-3.316,1.566,19.793,19.793,0,0,1-8.354,1.67H295l-.088-.128V72.96a17.492,17.492,0,0,0,8.016-4.546l.12-.2v-.128c-.249-.354-.411-.515-.491-.434h-.209q-.373.072-.8,1.084l-.77.241h-1.479l-.714-.3c.1-.892.152-3.2.121-6.955l-.242-.788v-.281a.427.427,0,0,1,.337-.3h.547l2.257.7.6.313h2.754c.3-.241.425-.4.385-.49V59.547a1.394,1.394,0,0,0-.385-.394h-6.1a2.313,2.313,0,0,1-1.124.137,1.07,1.07,0,0,1-.394-.442v-.3l.113-.128,4.633.064h11.55a12.026,12.026,0,0,1,1.638-2.081Zm-13.388-5.365h1.012a8.459,8.459,0,0,1,2.434.595l.136.12V52.3l-.659.738v.217c-.064.072.065.241.4.474h3.6c.305-.233.434-.4.394-.474V52.238l-.241-.7V51.3l.49-.306h1.012a5.368,5.368,0,0,1,2.3.667l.129.128V52.3c0,.128-.16.321-.513.618v.458a.88.88,0,0,0,.337.353h.176a11.956,11.956,0,0,1,1.744-2.016l.063-.048h.426a7.127,7.127,0,0,1,2.313,2.008l.065.056v.249c.04.08-.081.233-.37.434h-4.37a.63.63,0,0,0-.384.385v2.8a2.581,2.581,0,0,1-1.061.562h-1.437c-.7-.2-.916-.506-.675-.915a.762.762,0,0,0-.394-.378h-3.6c-.217.032-.467.378-.756,1.044l-.674.249h-1.519l-.618-.426V54.792a.792.792,0,0,0-.433-.385l-3.2.032a.434.434,0,0,1-.29-.273v-.442l.114-.112a16.74,16.74,0,0,0,3.373.112c.337-.233.465-.4.433-.474V52.3l-.177-.635v-.426Zm.377,11.027a.6.6,0,0,0-.424.394v1.14c-.089.081.047.234.424.475h2.619c.3-.241.425-.394.385-.475v-1.14a.87.87,0,0,0-.385-.394Zm0,2.651a.7.7,0,0,0-.424.425v1.446c-.089.065.047.233.424.474h2.619c.3-.241.425-.409.385-.474V65.1a1.123,1.123,0,0,0-.385-.425ZM305.3,54.407a.675.675,0,0,0-.4.385v.883c-.064.089.065.242.4.491h3.6c.305-.249.434-.4.394-.491v-.883a.813.813,0,0,0-.394-.385Zm3.115,14.007h1.88A15.122,15.122,0,0,1,316.51,70.1a2.859,2.859,0,0,1,.891,1.3v.956a1.713,1.713,0,0,1-1.245,1.237l-.129.064h-.489c-.506.08-1.446-.65-2.8-2.192a14.434,14.434,0,0,0-4.818-2.49v-.3Zm.57-6.394a.619.619,0,0,0-.392.394v1.14c-.081.081.055.234.392.475h2.876c.321-.241.474-.394.426-.475v-1.14a.933.933,0,0,0-.426-.394Zm0,2.651a.735.735,0,0,0-.392.425v1.446c-.081.065.055.233.392.474h2.876c.321-.241.474-.409.426-.474V65.1a1.2,1.2,0,0,0-.426-.425Z"/><path class="cls-5" d="M361.51,45.861v.185l.281,1.365v3.446c.04.08-.1.233-.4.482h-3.5v-.177l.764-1.076a6.443,6.443,0,0,0,1.244-.876v-.546l-.3-.321a11.7,11.7,0,0,0-3.262-1.044h-.8l-.265.241-.313,1.879a23.531,23.531,0,0,1-4.1,7.678v.185l.241.185h.37l1.059-.651c2.667-2.1,4.282-3.734,4.875-4.891h3.992a.946.946,0,0,1,.4.425v5.165c.04.088-.1.257-.4.5h-7.252c-2.868.04-4.3,0-4.3-.121l-.121.121v.265a.591.591,0,0,0,.361.5l1.831-.193h25.114c.281-.193.41-.329.362-.386v-.3l-.048-.12a8.848,8.848,0,0,0-2.908-2.321h-.473l-.314.12c-.088-.032-.4.4-.947,1.317-.547.787-.867,1.165-.939,1.125h-6.194c-.369-.241-.513-.41-.425-.5V52.35a.722.722,0,0,1,.425-.425h7.951l.25-.345v-.241l-.056-.1a7.149,7.149,0,0,0-2.924-2.329h-.514l-.072.057-1.734,2.377h-2.9c-.369-.249-.513-.4-.425-.482V48.238l.121-.136c.593-.667.834-1.036.754-1.116v-.4l-.289-.233a5.456,5.456,0,0,0-2.2-.739h-1.767Zm8.569,15.533-1.14,1.743H357.711l-.434-.3-2.875-1h-.69l-.121.12a19.432,19.432,0,0,1,.121,2.892c.031,5.654,0,8.481-.121,8.537a.986.986,0,0,0,.57.45h1.559l.063-.056c.161.08.555-.1,1.188-.522-.08-1.238.082-1.84.491-1.783h11.662l.346.3c-.145,1.037.095,1.639.73,1.816h1.253A2.218,2.218,0,0,0,373,72.7v-.369l-.112-1.574V64.968l.241-.249c.473-.393.682-.618.642-.7v-.755l-.121-.184a5.577,5.577,0,0,0-2.618-1.743H370.2Zm-.955,2.313a1.07,1.07,0,0,1,.409.434V70.4c.032.081-.1.234-.409.466H357.462c-.377-.232-.506-.385-.434-.466V64.141a.819.819,0,0,1,.434-.434Z"/><path class="cls-5" d="M423.184,46.126h.3l2.072,1,.731.546v.4l-.185.289V48.5h2.907l1.093-1.318.12-.048h.578a10.976,10.976,0,0,1,3.173,2.1l.048.089c.234.168-.112.57-1.027,1.221-.217-.04-.306.393-.274,1.309.065.024-.015,2.184-.241,6.521h.4l.659-.393h.369a7.382,7.382,0,0,1,2.682,2.361v.643c.033.248-.6.425-1.863.489a7.116,7.116,0,0,0-2.979,1.5l-.587.458h-.434l-.112-.129v-.264l1.446-2.627v-.24H412.125v.545l.12.338v1.309a2.787,2.787,0,0,1-2.225,2.441h-.883a1.5,1.5,0,0,1-1.189-1.2V63.1c-.048-.233.474-1.125,1.55-2.627a6.924,6.924,0,0,0,.37-2.553l.064-.057h.145c.723.458,1.107.772,1.124.94l.257.241h.112l-.177-8.618-.337-1.1-.064-.032v-.619l.192-.112h.386l2.265.674.049.057h.128a7.588,7.588,0,0,0,2.289-2.506c.056-.361.184-.563.393-.61h.241a11.293,11.293,0,0,1,2.626,2.08l.057.112V48.8c.048.2-.578.378-1.848.523a9.565,9.565,0,0,0-2.633.674c-.082-.088-.145-.024-.217.169v2.072l.169.2h.6A5.471,5.471,0,0,1,416.823,51h.481a3.6,3.6,0,0,1,1.591,1.543v.249c-.113.208-.209.32-.353.329h-3.213a.7.7,0,0,0-.409.441l.072,2.1.145.152h.553l1.245-1.526h.626a5.165,5.165,0,0,1,1.7,1.582v.193c.04.073-.089.225-.362.418h-3.454a.844.844,0,0,0-.425.426v2.136c-.056.08.088.233.425.458H428.79c.305-.225.433-.378.4-.458V56.784a1.229,1.229,0,0,0-.4-.426h-2.1c.072.032-.009.057-.273.057L426.107,56v-.249l.129-.088,1.365.04h1.318c.3-.233.441-.386.4-.474V53.491a1.038,1.038,0,0,0-.4-.394h-2.555l-.257-.3v-.314l.129-.1,1.767.064h1.011c.322-.257.466-.426.418-.5V49.564a1.139,1.139,0,0,0-.418-.394h-2.593l-.185.064a.9.9,0,0,1-.37-.787h-.112c-.128-.088-.434.225-.9.94v.121c.209.04.418.4.586,1.084v.763a1.613,1.613,0,0,1-1,1.084h-.529a2.616,2.616,0,0,1-1.028-1.084h-.274a10.26,10.26,0,0,1-2.344,1.189l-.523.184h-.481l-.057-.112v-.137c-.088-.1.306-.5,1.189-1.124a6.253,6.253,0,0,0,1.252-1.671v-.072l-1.654-1.486v-.257l.274-.193a4.472,4.472,0,0,1,2.224.3C422.622,48.022,422.862,47.387,423.184,46.126Zm3.389,14.81h.658a9.642,9.642,0,0,1,2.82,2.369v.258c.12.393-.506.554-1.872.489-.707-.1-1.919.306-3.614,1.181.032.241-.177.538-.658.876v.24l.168.193h5.662a5.746,5.746,0,0,1,1.494-2.441h.643a6.732,6.732,0,0,1,3.164,2.441v.233c.049.088-.064.217-.353.41H424.324a.654.654,0,0,0-.417.417v4.3c.08.876-1,1.59-3.156,2.137h-1.19c-.361-.032-.722-.659-1.068-1.856a3.945,3.945,0,0,0-2.626-1.534v-.241l.241-.192a23.5,23.5,0,0,0,3.687.192.8.8,0,0,0,.658-.674V67.6a1.133,1.133,0,0,0-.409-.417h-9.6l-1.068.177c-.16-.041-.329-.249-.491-.635v-.185l.129-.12h.362l.433.12h10.233c.312-.248.441-.409.409-.5v-.691l-.337-.787v-.282l.2-.184a11.6,11.6,0,0,1,2.931.305c.161,0,.61-.394,1.366-1.189l.305-.353v-.137H414.871l-.377.137h-.177l-.241-.306v-.433l.112-.1,1.8.032h9.061Zm-3.084-8.264h.305a8.644,8.644,0,0,1,2.442,1.365l.217.3V54.5c.072.137-.346.474-1.253,1.044l-.346.458v.361a2.419,2.419,0,0,1,.418.884v.779a1.824,1.824,0,0,1-1.011,1.02c-.475.281-1.11-.153-1.9-1.309a15.445,15.445,0,0,1-3.469,1.309h-.53l-.112-.113v-.184a13.814,13.814,0,0,0,3.188-2.506v-.177c.088-.088-.4-.642-1.454-1.654l-.128-.065v-.3l.128-.048h.948l1.55.45h.12a4.155,4.155,0,0,0,.82-1.711Z"/><path class="cls-5" d="M479.405,46.126h.642l2.923,1.125c.514.192.763.393.763.618v.386a.846.846,0,0,1-.521.417v.249a25,25,0,0,0,12.866,3.751l.048.056V53.1a9.244,9.244,0,0,0-2.1,2.008,1.311,1.311,0,0,1-.939,1.133h-.707a21.746,21.746,0,0,1-4.418-2.016l-.064-.056c0,.513-.144.779-.45.819H476.77a1.84,1.84,0,0,1-.875.12c-.33-.232-.49-.426-.49-.538v-.16l.128-.121a28.512,28.512,0,0,0,4.626.121h3.478l1.461-1.679.314-.112v-.177a27.463,27.463,0,0,1-3.149-3.052h-.127a30.693,30.693,0,0,1-8.579,5.718l-1.711.707v.056l2.491.86.377.177h13.557a3.506,3.506,0,0,1,1.366-1.494h.37a9.066,9.066,0,0,1,2.658,1.654l.048.129v.353a1.679,1.679,0,0,1-.82.827l.073,4.931a2.424,2.424,0,0,1-1.807.868L489.4,64.1l1.494,1.18.185.249v.579l-.666.859v4.867l.128,1.566v.274a1.5,1.5,0,0,1-1.141.834h-1.67c-.345.057-.619-.4-.819-1.349l-.192-.145H476.658c-.29,0-.482.386-.587,1.149a7.161,7.161,0,0,1-1.791.345h-.818a.615.615,0,0,1-.612-.6,57.028,57.028,0,0,0,.114-7.309V65.474l-.178-1.132a1.341,1.341,0,0,1-1.558-.482l-.048-.057.048-5.059-.048-2.193-.128-.49a12.515,12.515,0,0,1-3.389.94h-.418l-.1-.1v-.121A33.1,33.1,0,0,0,477.429,49.1a13.228,13.228,0,0,0,1.3-1.727l.435-1.068ZM474.649,63.37a1.27,1.27,0,0,1-.85.972v.064l2.682.827.056.048H486.6a5.686,5.686,0,0,1,1.245-1.229c.715-.1,1-.184.917-.249v-.064l-.185-.369Zm.161-5.823a.767.767,0,0,0-.417.434v4.257c-.081.088.064.248.417.489h4.884c.32-.241.442-.4.417-.489V57.981a1.15,1.15,0,0,0-.417-.434Zm1.021.37h.706a3.875,3.875,0,0,1,2.257,1.493l.37,1.06v.587a2.182,2.182,0,0,1-1.446,1.429l-.113.072h-.241c-.891-.208-1.252-1.132-1.076-2.754a2.709,2.709,0,0,0-.7-1.55h-.057v-.161Zm.827,8.015a.727.727,0,0,0-.426.417v1.808c-.081.08.056.241.426.457h10.056c.329-.216.465-.377.433-.457V66.349a1.088,1.088,0,0,0-.433-.417Zm0,3.285a.74.74,0,0,0-.426.425v2.329c-.081.073.056.225.426.458h10.056c.329-.233.465-.385.433-.458V69.642a1.112,1.112,0,0,0-.433-.425Zm6.866-11.67a.781.781,0,0,0-.441.434v4.257c-.065.088.072.248.441.489h.169c.546-.707.932-2.313,1.133-4.81l.128-.057h.57a7.982,7.982,0,0,1,2.619,1.181v.249c.08.144-.33.442-1.237.884,0,.047-.739.762-2.2,2.192l-.194.192v.169h3.824c.3-.241.449-.4.426-.489V57.981a1.124,1.124,0,0,0-.426-.434Z"/><path class="cls-5" d="M193.507,103.494H188.1v-.336h.442a1.182,1.182,0,0,0,1.052-.4,2.427,2.427,0,0,0,.29-1.422V93.006l-4.908,10.488h-.305l-4.891-10.457-.04,8.3a2.619,2.619,0,0,0,.28,1.438,1.208,1.208,0,0,0,1.069.386h.442v.336h-4.418v-.336h.45a1.219,1.219,0,0,0,1.06-.386,2.525,2.525,0,0,0,.289-1.438V93.223a2.277,2.277,0,0,0-.337-1.445,1.628,1.628,0,0,0-1.229-.4h-.233v-.336h3.614l4.611,9.742,4.546-9.742h3.622v.336h-.442a1.348,1.348,0,0,0-1.093.369,2.577,2.577,0,0,0-.281,1.471v8.111a2.582,2.582,0,0,0,.289,1.471,1.318,1.318,0,0,0,1.085.353h.442Z"/><path class="cls-5" d="M206.63,103.158a1.7,1.7,0,0,1-1.244-.41,4.8,4.8,0,0,1-.949-1.623l-4.425-10.367h-.322L195.2,101.006a6.6,6.6,0,0,1-.892,1.621,1.647,1.647,0,0,1-1.011.5l-.193.033v.329h4v-.329l-.264-.033c-.8,0-1.189-.273-1.189-.818a3.1,3.1,0,0,1,.3-1.02l.859-1.984h4.924l.787,1.822a3.407,3.407,0,0,1,.369,1.149.73.73,0,0,1-.273.668,1.794,1.794,0,0,1-1.035.216v.329h5.043ZM197.1,98.645l2.209-5.053,2.185,5.053Z"/><path class="cls-5" d="M218.035,100.58a5.814,5.814,0,0,1-5.276,3.188,6.017,6.017,0,0,1-4.483-1.742,6.27,6.27,0,0,1-1.726-4.586,6.508,6.508,0,0,1,1.871-4.764,6.155,6.155,0,0,1,4.61-1.887,6.442,6.442,0,0,1,2.731.627,1.632,1.632,0,0,0,.562.176c.409,0,.675-.281.787-.834h.321l.3,4.248h-.3a8.752,8.752,0,0,0-.418-1.182,4.551,4.551,0,0,0-.513-.849,3.641,3.641,0,0,0-1.43-1.141,4.249,4.249,0,0,0-1.887-.418,3.859,3.859,0,0,0-3.317,1.606,7.377,7.377,0,0,0-1.173,4.441,5.96,5.96,0,0,0,1.27,4.057,4.315,4.315,0,0,0,3.485,1.445,4.513,4.513,0,0,0,2.232-.537,6.836,6.836,0,0,0,1.928-1.9l.12-.136Z"/><path class="cls-5" d="M231.439,103.158a1.689,1.689,0,0,1-1.253-.41,5.108,5.108,0,0,1-.947-1.623l-4.434-10.367h-.313L220,101.006a6.968,6.968,0,0,1-.884,1.621,1.629,1.629,0,0,1-1.02.5l-.193.033v.329h4v-.329l-.265-.033c-.787,0-1.189-.273-1.189-.818a3.109,3.109,0,0,1,.306-1.02l.851-1.984h4.947l.771,1.822a3.561,3.561,0,0,1,.386,1.149.746.746,0,0,1-.306.668,1.689,1.689,0,0,1-1.012.216v.329h5.044Zm-9.533-4.513,2.225-5.053,2.169,5.053Z"/><path class="cls-5" d="M244.354,91.047h-4.513v.336h.5a1.281,1.281,0,0,1,1.059.369,2.728,2.728,0,0,1,.289,1.494V98.3c0,.563-.032,1.061-.055,1.438a5.014,5.014,0,0,1-.194,1,2.755,2.755,0,0,1-1.308,1.647,4.564,4.564,0,0,1-2.394.619,3.309,3.309,0,0,1-2.506-.965,5.28,5.28,0,0,1-.8-3.342V93.246a2.636,2.636,0,0,1,.29-1.468,1.28,1.28,0,0,1,1.084-.4h.473v-.336h-5.5v.336h.49a1.288,1.288,0,0,1,1.077.4,2.719,2.719,0,0,1,.289,1.468V98.7a9.187,9.187,0,0,0,.169,2.145,4.433,4.433,0,0,0,.731,1.422c.763,1,2.136,1.51,4.1,1.51a5.3,5.3,0,0,0,3.662-1.188,3.756,3.756,0,0,0,.964-1.59,7.161,7.161,0,0,0,.224-1.14c.033-.338.057-.828.057-1.5V93.326a2.723,2.723,0,0,1,.306-1.492,1.147,1.147,0,0,1,1.035-.451h.482Z"/><path class="cls-5" d="M265,103.487h-5.044v-.329a1.733,1.733,0,0,0,1.028-.216.749.749,0,0,0,.274-.668,3.759,3.759,0,0,0-.362-1.149L260.1,99.3h-4.916l-.875,1.984a3.307,3.307,0,0,0-.3,1.02c0,.545.384.818,1.187.818l.274.033v.329h-4v-.329l.193-.033a1.762,1.762,0,0,0,1.027-.5,7.438,7.438,0,0,0,.868-1.621l4.5-10.248h.323l4.417,10.367a5.264,5.264,0,0,0,.947,1.623,1.7,1.7,0,0,0,1.253.41Zm-5.132-4.842-2.184-5.053-2.209,5.053Z"/><path class="cls-5" d="M277.412,97.19a6.276,6.276,0,0,1-1.012,3.55,5.522,5.522,0,0,1-2.682,2.194,8.456,8.456,0,0,1-1.591.465,13.115,13.115,0,0,1-1.864.095h-5.694v-.336h.475a1.2,1.2,0,0,0,1.084-.4,2.589,2.589,0,0,0,.264-1.445V93.246a2.737,2.737,0,0,0-.289-1.494,1.257,1.257,0,0,0-1.059-.369h-.475v-.336h5.181a20.446,20.446,0,0,1,2.313.088,7.849,7.849,0,0,1,1.687.426,4.792,4.792,0,0,1,1.212.594,5.311,5.311,0,0,1,1.037.972A6.061,6.061,0,0,1,277.412,97.19Zm-2.161.121a5.835,5.835,0,0,0-1.389-4.065,4.859,4.859,0,0,0-3.734-1.494,9.221,9.221,0,0,0-1.92.242v10.594a9.762,9.762,0,0,0,1.983.264,4.75,4.75,0,0,0,3.671-1.518A5.721,5.721,0,0,0,275.251,97.311Z"/><path class="cls-5" d="M290.841,91.047h-3.952v.336l.176.041c.78.1,1.173.41,1.173.883a4.141,4.141,0,0,1-.417,1.422l-3.028,7.22-3.237-7.3a5.434,5.434,0,0,1-.337-.86,1.393,1.393,0,0,1-.105-.506.681.681,0,0,1,.3-.627,2.852,2.852,0,0,1,1.141-.273v-.336h-5.22v.336a2.153,2.153,0,0,1,1.2.369,4.178,4.178,0,0,1,.819,1.285l4.771,10.739h.338L288.913,93.2a3.632,3.632,0,0,1,.787-1.31,2.061,2.061,0,0,1,1.141-.506Z"/><path class="cls-5" d="M300.976,100.371c-.264.491-.418.8-.5.94a6.976,6.976,0,0,1-.6.658,2.471,2.471,0,0,1-.955.676,5.986,5.986,0,0,1-1.663.168H295.1c-.5,0-.8-.065-.9-.217a2.413,2.413,0,0,1-.161-1.156V97.334h2.811a2.4,2.4,0,0,1,1.461.315,2.233,2.233,0,0,1,.523,1.357l.024.168h.345V94.821h-.345a1.871,1.871,0,0,1-.418,1.421,2.274,2.274,0,0,1-1.59.418h-2.811V91.737h3.518a2.945,2.945,0,0,1,1.743.353,2.4,2.4,0,0,1,.7,1.518l.031.162h.37l-.169-2.723h-9.806v.336h.45a1.353,1.353,0,0,1,1.108.369,2.638,2.638,0,0,1,.281,1.471v8.088a2.467,2.467,0,0,1-.289,1.445,1.241,1.241,0,0,1-1.085.4h-.465v.336h9.846l1.069-3.123Z"/><path class="cls-5" d="M313.859,103.494h-3.4l-4.329-5.814h-1.318v3.631a2.573,2.573,0,0,0,.289,1.461,1.211,1.211,0,0,0,1.061.386h.481v.336h-5.461v-.336h.482a1.178,1.178,0,0,0,1.068-.4,2.547,2.547,0,0,0,.281-1.445V93.246a2.49,2.49,0,0,0-.305-1.494,1.245,1.245,0,0,0-1.044-.369h-.482v-.336h4.642c.867,0,1.414,0,1.606.016a7.345,7.345,0,0,1,1.093.193,3.338,3.338,0,0,1,1.542.77,2.79,2.79,0,0,1,1.06,2.224c0,1.672-1.044,2.715-3.132,3.2l2.618,3.559a6.471,6.471,0,0,0,1.526,1.613,3.451,3.451,0,0,0,1.719.539Zm-4.843-9.123a2.55,2.55,0,0,0-.748-1.912,2.881,2.881,0,0,0-2.031-.707,5.059,5.059,0,0,0-.619.026,6.816,6.816,0,0,0-.8.136v5.164l.466.024a4.59,4.59,0,0,0,2.747-.715A2.331,2.331,0,0,0,309.016,94.371Z"/><path class="cls-5" d="M323.97,93.979h-.353l-.016-.155a2.258,2.258,0,0,0-.69-1.517,2.41,2.41,0,0,0-1.615-.473h-1.815v9.5a2.715,2.715,0,0,0,.289,1.471,1.331,1.331,0,0,0,1.076.353h.45v.336h-5.413v-.336h.433a1.28,1.28,0,0,0,1.093-.386,2.547,2.547,0,0,0,.281-1.438v-9.5h-1.534a4.04,4.04,0,0,0-1.333.137,1.478,1.478,0,0,0-.707.529,4.75,4.75,0,0,0-.369.674,2.412,2.412,0,0,0-.113.8h-.345l.128-2.932h10.417Z"/><path class="cls-5" d="M329.464,103.158h-.442a1.259,1.259,0,0,1-1.092-.386,2.564,2.564,0,0,1-.289-1.461V93.246a2.645,2.645,0,0,1,.289-1.494,1.359,1.359,0,0,1,1.092-.369h.442v-.336h-5.438v.336h.435a1.409,1.409,0,0,1,1.108.369,2.938,2.938,0,0,1,.273,1.494v8.065a2.749,2.749,0,0,1-.273,1.461,1.3,1.3,0,0,1-1.108.386h-.435v.336h5.438Z"/><path class="cls-5" d="M338.677,100.346a3.136,3.136,0,0,1-1.149,2.459,4.471,4.471,0,0,1-2.916.963,5.209,5.209,0,0,1-1.558-.209l-1.076-.321a1.889,1.889,0,0,0-.707-.16c-.321,0-.514.233-.578.69h-.353V99.487h.353a7.047,7.047,0,0,0,.474,1.7,2.656,2.656,0,0,0,.827,1.019,3.771,3.771,0,0,0,2.489.852,2.829,2.829,0,0,0,1.832-.571,1.816,1.816,0,0,0,.691-1.437,2.047,2.047,0,0,0-.691-1.533,5.064,5.064,0,0,0-.45-.362c-.128-.095-.321-.209-.561-.361l-1.3-.723c-.74-.418-1.333-.763-1.751-1.021a5.844,5.844,0,0,1-1.012-.77,3.1,3.1,0,0,1-.763-1.045,2.832,2.832,0,0,1-.249-1.2,2.943,2.943,0,0,1,1.06-2.32,3.776,3.776,0,0,1,2.65-.955,5.462,5.462,0,0,1,1.061.1,6.847,6.847,0,0,1,1.108.376,2.812,2.812,0,0,0,.449.178,1.054,1.054,0,0,0,.29.065c.322,0,.539-.25.634-.723h.378v4.3h-.378a4.22,4.22,0,0,0-1.132-2.611,3.326,3.326,0,0,0-2.393-.948,2.407,2.407,0,0,0-1.59.578,1.683,1.683,0,0,0-.659,1.325,1.864,1.864,0,0,0,.851,1.463,6.266,6.266,0,0,0,.932.642c.257.16.723.426,1.4.772.947.48,1.557.826,1.878,1.035a6.37,6.37,0,0,1,.932.73A3.021,3.021,0,0,1,338.677,100.346Z"/><path class="cls-5" d="M344.651,103.158H344.2a1.268,1.268,0,0,1-1.092-.386,2.549,2.549,0,0,1-.3-1.461V93.246a2.629,2.629,0,0,1,.3-1.494,1.37,1.37,0,0,1,1.092-.369h.449v-.336H339.2v.336h.441a1.347,1.347,0,0,1,1.093.369,2.573,2.573,0,0,1,.306,1.494v8.065a2.413,2.413,0,0,1-.306,1.461,1.249,1.249,0,0,1-1.093.386H339.2v.336h5.453Z"/><path class="cls-5" d="M357.823,91.383h-.466a1.343,1.343,0,0,0-1.076.369,2.787,2.787,0,0,0-.272,1.471V103.7h-.338L347.31,93.649l-.032,7.685a2.714,2.714,0,0,0,.265,1.438,1.224,1.224,0,0,0,1.076.386h.466v.336h-4.449v-.336h.45a1.264,1.264,0,0,0,1.076-.386,2.534,2.534,0,0,0,.289-1.438V92.676a4.641,4.641,0,0,0-1.125-1.02,2.506,2.506,0,0,0-1.14-.273h-.241v-.336H347.4l7.759,9.356.023-7.18a2.64,2.64,0,0,0-.28-1.471,1.33,1.33,0,0,0-1.076-.369h-.45v-.336h4.449Z"/><path class="cls-5" d="M370.762,96.709h-4.939v.344h.257a1.6,1.6,0,0,1,1.108.307,1.562,1.562,0,0,1,.305,1.107v4a5.275,5.275,0,0,1-2.618.691,4.313,4.313,0,0,1-3.5-1.711,6.755,6.755,0,0,1-1.414-4.369,6.068,6.068,0,0,1,1.317-4.113,4.24,4.24,0,0,1,3.438-1.564q3.108,0,4.192,3.3h.377l-.329-3.943h-.369c0,.529-.161.8-.482.8a.587.587,0,0,1-.225-.033c-.16-.073-.306-.129-.45-.184-.691-.234-1.221-.394-1.575-.474a7.19,7.19,0,0,0-1.284-.1,6.785,6.785,0,0,0-2.554.449,6.318,6.318,0,0,0-3.036,2.465,6.646,6.646,0,0,0-1.173,3.768,6.246,6.246,0,0,0,.619,2.715,5.9,5.9,0,0,0,1.694,2.136,7.4,7.4,0,0,0,4.755,1.461,10.48,10.48,0,0,0,1.4-.088,8.189,8.189,0,0,0,1.527-.314,12.221,12.221,0,0,0,1.517-.651V98.862a2.793,2.793,0,0,1,.249-1.43,1.086,1.086,0,0,1,.964-.379h.233Z"/><path class="cls-5" d="M391.435,103.487h-5.051v-.329a1.764,1.764,0,0,0,1.036-.216.739.739,0,0,0,.289-.668,3.961,3.961,0,0,0-.378-1.149l-.787-1.822h-4.923l-.859,1.984a3.189,3.189,0,0,0-.314,1.02c0,.545.394.818,1.2.818l.273.033v.329H377.9v-.329l.193-.033a1.673,1.673,0,0,0,1.02-.5,6.6,6.6,0,0,0,.892-1.621l4.481-10.248h.337l4.418,10.367a4.84,4.84,0,0,0,.947,1.623,1.693,1.693,0,0,0,1.245.41ZM386.3,98.645l-2.178-5.053-2.2,5.053Z"/><path class="cls-5" d="M400.343,100.346a3.092,3.092,0,0,1-1.158,2.459,4.386,4.386,0,0,1-2.907.963,5.265,5.265,0,0,1-1.55-.209l-1.076-.321a1.958,1.958,0,0,0-.715-.16c-.321,0-.514.233-.578.69h-.346V99.487h.346a6.657,6.657,0,0,0,.482,1.7,3.083,3.083,0,0,0,.819,1.019,3.829,3.829,0,0,0,2.489.852,2.783,2.783,0,0,0,1.832-.571,1.766,1.766,0,0,0,.691-1.437,1.989,1.989,0,0,0-.691-1.533,5.064,5.064,0,0,0-.45-.362c-.12-.095-.313-.209-.561-.361l-1.3-.723c-.739-.418-1.325-.763-1.751-1.021a6.127,6.127,0,0,1-1.012-.77,2.979,2.979,0,0,1-.755-1.045,2.836,2.836,0,0,1-.257-1.2,2.991,2.991,0,0,1,1.06-2.32,3.8,3.8,0,0,1,2.667-.955,5.293,5.293,0,0,1,1.044.1,6.567,6.567,0,0,1,1.108.376,3.569,3.569,0,0,0,.458.178,1.086,1.086,0,0,0,.3.065c.314,0,.53-.25.643-.723h.353v4.3h-.353a4.226,4.226,0,0,0-1.158-2.611,3.264,3.264,0,0,0-2.384-.948,2.4,2.4,0,0,0-1.59.578,1.68,1.68,0,0,0-.659,1.325,1.864,1.864,0,0,0,.851,1.463,7.721,7.721,0,0,0,.924.642c.257.16.723.426,1.405.772.932.48,1.567.826,1.888,1.035a5.55,5.55,0,0,1,.915.73A3.021,3.021,0,0,1,400.343,100.346Z"/><path class="cls-5" d="M410.077,100.346a3.079,3.079,0,0,1-1.141,2.459,4.456,4.456,0,0,1-2.916.963,5.276,5.276,0,0,1-1.557-.209l-1.069-.321a2.026,2.026,0,0,0-.707-.16c-.337,0-.53.233-.586.69h-.361V99.487h.361a6.7,6.7,0,0,0,.474,1.7,2.851,2.851,0,0,0,.835,1.019,3.773,3.773,0,0,0,2.49.852,2.771,2.771,0,0,0,1.816-.571,1.771,1.771,0,0,0,.69-1.437,1.994,1.994,0,0,0-.69-1.533,4.185,4.185,0,0,0-.443-.362c-.128-.095-.313-.209-.553-.361l-1.31-.723c-.747-.418-1.325-.763-1.759-1.021a6.534,6.534,0,0,1-1.012-.77,3.062,3.062,0,0,1,.056-4.57,3.783,3.783,0,0,1,2.659-.955,5.587,5.587,0,0,1,1.06.1,6.723,6.723,0,0,1,1.093.376,2.375,2.375,0,0,0,.465.178.938.938,0,0,0,.29.065c.321,0,.53-.25.625-.723h.37v4.3h-.37a4.168,4.168,0,0,0-1.124-2.611,3.326,3.326,0,0,0-2.393-.948,2.379,2.379,0,0,0-1.59.578,1.66,1.66,0,0,0-.659,1.325,1.887,1.887,0,0,0,.835,1.463,9.607,9.607,0,0,0,.931.642c.258.16.724.426,1.407.772.939.48,1.566.826,1.886,1.035a5.872,5.872,0,0,1,.924.73A3.042,3.042,0,0,1,410.077,100.346Z"/><path class="cls-5" d="M423.312,97.19a6.492,6.492,0,0,1-1.791,4.683,6.254,6.254,0,0,1-8.923.047,6.55,6.55,0,0,1-1.751-4.713,6.269,6.269,0,0,1,1.591-4.353,5.786,5.786,0,0,1,2.168-1.567,6.092,6.092,0,0,1,2.594-.547,5.759,5.759,0,0,1,4.346,1.872A6.451,6.451,0,0,1,423.312,97.19Zm-2.152.25a7.909,7.909,0,0,0-1.052-4.465,3.5,3.5,0,0,0-3.06-1.559,3.394,3.394,0,0,0-2.988,1.526,7.3,7.3,0,0,0-1.06,4.24,7.632,7.632,0,0,0,1.076,4.361,3.382,3.382,0,0,0,2.972,1.574,3.607,3.607,0,0,0,3.036-1.453A7.229,7.229,0,0,0,421.16,97.44Z"/><path class="cls-5" d="M434.934,100.4l-.121.136a6.915,6.915,0,0,1-1.92,1.9,4.52,4.52,0,0,1-2.24.537,4.37,4.37,0,0,1-3.494-1.445,6.045,6.045,0,0,1-1.261-4.057,7.273,7.273,0,0,1,1.181-4.441,3.859,3.859,0,0,1,3.317-1.606,4.236,4.236,0,0,1,1.879.418,3.627,3.627,0,0,1,1.43,1.141,5.208,5.208,0,0,1,.515.849,9.231,9.231,0,0,1,.417,1.182h.3l-.3-4.248h-.322c-.112.553-.385.834-.787.834a1.735,1.735,0,0,1-.561-.176,6.393,6.393,0,0,0-2.732-.627,6.182,6.182,0,0,0-4.617,1.887,6.53,6.53,0,0,0-1.863,4.764,6.266,6.266,0,0,0,1.726,4.586,6.026,6.026,0,0,0,4.5,1.742,5.8,5.8,0,0,0,5.261-3.188Z"/><path class="cls-5" d="M440.853,103.494h-5.429v-.336h.434a1.3,1.3,0,0,0,1.1-.386,2.657,2.657,0,0,0,.281-1.461V93.246a2.838,2.838,0,0,0-.281-1.494,1.4,1.4,0,0,0-1.1-.369h-.434v-.336h5.429v.336h-.433a1.371,1.371,0,0,0-1.093.369,2.64,2.64,0,0,0-.3,1.494v8.065a2.559,2.559,0,0,0,.3,1.461,1.269,1.269,0,0,0,1.093.386h.433Z"/><path class="cls-5" d="M454.1,103.487h-5.051v-.329a1.658,1.658,0,0,0,1.011-.216.711.711,0,0,0,.305-.668,3.845,3.845,0,0,0-.369-1.149l-.787-1.822h-4.932l-.85,1.984a3.038,3.038,0,0,0-.322,1.02c0,.545.4.818,1.189.818l.264.033v.329h-3.991v-.329l.193-.033a1.628,1.628,0,0,0,1.011-.5,6.968,6.968,0,0,0,.884-1.621l4.5-10.248h.314l4.432,10.367a5.3,5.3,0,0,0,.941,1.623,1.719,1.719,0,0,0,1.26.41Zm-5.148-4.842-2.169-5.053-2.225,5.053Z"/><path class="cls-5" d="M464.4,91.047H453.985l-.137,2.932h.354a2.413,2.413,0,0,1,.112-.8,3.5,3.5,0,0,1,.369-.674,1.469,1.469,0,0,1,.715-.529,3.929,3.929,0,0,1,1.325-.137h1.542v9.5a2.525,2.525,0,0,1-.289,1.438,1.279,1.279,0,0,1-1.084.386h-.442v.336h5.414v-.336h-.45a1.341,1.341,0,0,1-1.076-.353,2.728,2.728,0,0,1-.282-1.471v-9.5h1.808a2.369,2.369,0,0,1,1.606.473,2.249,2.249,0,0,1,.691,1.517l.031.155h.338Z"/><path class="cls-5" d="M470.04,103.494h-5.461v-.336h.449a1.257,1.257,0,0,0,1.092-.386,2.485,2.485,0,0,0,.3-1.461V93.246a2.651,2.651,0,0,0-.3-1.494,1.357,1.357,0,0,0-1.092-.369h-.449v-.336h5.461v.336h-.45a1.357,1.357,0,0,0-1.092.369,2.489,2.489,0,0,0-.306,1.494v8.065a2.413,2.413,0,0,0,.306,1.461,1.257,1.257,0,0,0,1.092.386h.45Z"/><path class="cls-5" d="M482.737,97.19a6.522,6.522,0,0,1-1.791,4.683,6.263,6.263,0,0,1-8.931.047,6.618,6.618,0,0,1-1.751-4.713,6.239,6.239,0,0,1,1.6-4.353,5.767,5.767,0,0,1,2.16-1.567,6.111,6.111,0,0,1,2.586-.547,5.748,5.748,0,0,1,4.354,1.872A6.423,6.423,0,0,1,482.737,97.19Zm-2.16.25a7.909,7.909,0,0,0-1.052-4.465,3.489,3.489,0,0,0-3.06-1.559,3.4,3.4,0,0,0-2.988,1.526,7.3,7.3,0,0,0-1.052,4.24,7.632,7.632,0,0,0,1.076,4.361,3.369,3.369,0,0,0,2.964,1.574,3.606,3.606,0,0,0,3.036-1.453A7.229,7.229,0,0,0,480.577,97.44Z"/><path class="cls-5" d="M496.126,91.047h-4.434v.336h.443a1.268,1.268,0,0,1,1.068.369,2.473,2.473,0,0,1,.305,1.471l-.048,7.18-7.75-9.356h-3.447v.336h.226a2.409,2.409,0,0,1,1.14.273,4.392,4.392,0,0,1,1.14,1.02v8.658a2.6,2.6,0,0,1-.289,1.438,1.258,1.258,0,0,1-1.084.386h-.45v.336H487.4v-.336h-.466c-.547,0-.9-.121-1.076-.386a2.7,2.7,0,0,1-.273-1.438l.04-7.685,8.352,10.054h.346V93.223a2.707,2.707,0,0,1,.273-1.471,1.344,1.344,0,0,1,1.077-.369h.449Z"/></svg>